<mxfile host="app.diagrams.net" modified="2024-05-02T09:25:46.385Z" agent="Mozilla/5.0 (Windows NT 10.0; Win64; x64) AppleWebKit/537.36 (KHTML, like Gecko) Chrome/124.0.0.0 Safari/537.36" etag="vVKUs95iCez7SKlGw-iz" version="24.2.3" type="device">
  <diagram id="C5RBs43oDa-KdzZeNtuy" name="Page-1">
    <mxGraphModel dx="1434" dy="806" grid="0" gridSize="10" guides="1" tooltips="1" connect="1" arrows="1" fold="1" page="1" pageScale="1" pageWidth="827" pageHeight="1169" background="#FFFF99" math="0" shadow="0">
      <root>
        <mxCell id="WIyWlLk6GJQsqaUBKTNV-0" />
        <mxCell id="WIyWlLk6GJQsqaUBKTNV-1" parent="WIyWlLk6GJQsqaUBKTNV-0" />
        <mxCell id="ym4Yz_Qm3gVudFvOybNQ-50" value="&lt;h2 style=&quot;box-sizing: inherit; margin-top: 1.6rem; padding: var(--artdeco-reset-base-padding-zero); border: var(--artdeco-reset-base-border-zero); font-size: var(--font-size-xlarge); vertical-align: var(--artdeco-reset-base-vertical-align-baseline); background-color: rgb(255, 255, 255); outline: var(--artdeco-reset-base-outline-zero); color: rgba(0, 0, 0, 0.9); line-height: var(--line-height-default); font-family: -apple-system, system-ui, BlinkMacSystemFont, &amp;quot;Segoe UI&amp;quot;, Roboto, &amp;quot;Helvetica Neue&amp;quot;, &amp;quot;Fira Sans&amp;quot;, Ubuntu, Oxygen, &amp;quot;Oxygen Sans&amp;quot;, Cantarell, &amp;quot;Droid Sans&amp;quot;, &amp;quot;Apple Color Emoji&amp;quot;, &amp;quot;Segoe UI Emoji&amp;quot;, &amp;quot;Segoe UI Emoji&amp;quot;, &amp;quot;Segoe UI Symbol&amp;quot;, &amp;quot;Lucida Grande&amp;quot;, Helvetica, Arial, sans-serif; overflow-wrap: break-word; text-align: start;&quot; class=&quot;text-heading-xlarge org-organizational-page-admin-navigation__title&quot;&gt;&lt;span style=&quot;font-weight: var(--font-weight-bold);&quot;&gt;Follow for more : &lt;/span&gt;&lt;a style=&quot;&quot; href=&quot;https://www.linkedin.com/company/the-higher-stand-knowledge-centre&quot;&gt;The Higher Stand Knowledge Centre&lt;/a&gt;&lt;/h2&gt;" style="rounded=1;whiteSpace=wrap;html=1;verticalAlign=top;" vertex="1" parent="WIyWlLk6GJQsqaUBKTNV-1">
          <mxGeometry x="134" y="693" width="403" height="74" as="geometry" />
        </mxCell>
        <mxCell id="ym4Yz_Qm3gVudFvOybNQ-13" value="" style="edgeStyle=orthogonalEdgeStyle;rounded=0;orthogonalLoop=1;jettySize=auto;html=1;" edge="1" parent="WIyWlLk6GJQsqaUBKTNV-1" source="ym4Yz_Qm3gVudFvOybNQ-0" target="ym4Yz_Qm3gVudFvOybNQ-1">
          <mxGeometry relative="1" as="geometry" />
        </mxCell>
        <mxCell id="ym4Yz_Qm3gVudFvOybNQ-0" value="Start" style="ellipse;whiteSpace=wrap;html=1;aspect=fixed;fillColor=#e1d5e7;strokeColor=#9673a6;" vertex="1" parent="WIyWlLk6GJQsqaUBKTNV-1">
          <mxGeometry x="40" y="80" width="50" height="50" as="geometry" />
        </mxCell>
        <mxCell id="ym4Yz_Qm3gVudFvOybNQ-8" value="" style="edgeStyle=orthogonalEdgeStyle;rounded=0;orthogonalLoop=1;jettySize=auto;html=1;" edge="1" parent="WIyWlLk6GJQsqaUBKTNV-1" source="ym4Yz_Qm3gVudFvOybNQ-1" target="ym4Yz_Qm3gVudFvOybNQ-2">
          <mxGeometry relative="1" as="geometry" />
        </mxCell>
        <mxCell id="ym4Yz_Qm3gVudFvOybNQ-1" value="1. Gather Background Info" style="whiteSpace=wrap;html=1;aspect=fixed;fillColor=#f5f5f5;fontColor=#333333;strokeColor=#666666;" vertex="1" parent="WIyWlLk6GJQsqaUBKTNV-1">
          <mxGeometry x="120" y="65" width="80" height="80" as="geometry" />
        </mxCell>
        <mxCell id="ym4Yz_Qm3gVudFvOybNQ-9" value="" style="edgeStyle=orthogonalEdgeStyle;rounded=0;orthogonalLoop=1;jettySize=auto;html=1;" edge="1" parent="WIyWlLk6GJQsqaUBKTNV-1" source="ym4Yz_Qm3gVudFvOybNQ-2" target="ym4Yz_Qm3gVudFvOybNQ-3">
          <mxGeometry relative="1" as="geometry" />
        </mxCell>
        <mxCell id="ym4Yz_Qm3gVudFvOybNQ-2" value="2. Identify Stakeholders Info" style="whiteSpace=wrap;html=1;aspect=fixed;fillColor=#dae8fc;strokeColor=#6c8ebf;" vertex="1" parent="WIyWlLk6GJQsqaUBKTNV-1">
          <mxGeometry x="230" y="65" width="80" height="80" as="geometry" />
        </mxCell>
        <mxCell id="ym4Yz_Qm3gVudFvOybNQ-10" value="" style="edgeStyle=orthogonalEdgeStyle;rounded=0;orthogonalLoop=1;jettySize=auto;html=1;" edge="1" parent="WIyWlLk6GJQsqaUBKTNV-1" source="ym4Yz_Qm3gVudFvOybNQ-3" target="ym4Yz_Qm3gVudFvOybNQ-4">
          <mxGeometry relative="1" as="geometry" />
        </mxCell>
        <mxCell id="ym4Yz_Qm3gVudFvOybNQ-12" value="" style="edgeStyle=orthogonalEdgeStyle;rounded=0;orthogonalLoop=1;jettySize=auto;html=1;" edge="1" parent="WIyWlLk6GJQsqaUBKTNV-1" source="ym4Yz_Qm3gVudFvOybNQ-3" target="ym4Yz_Qm3gVudFvOybNQ-7">
          <mxGeometry relative="1" as="geometry" />
        </mxCell>
        <mxCell id="ym4Yz_Qm3gVudFvOybNQ-3" value="3. Discover Business Objecttves" style="whiteSpace=wrap;html=1;aspect=fixed;fillColor=#d5e8d4;strokeColor=#82b366;" vertex="1" parent="WIyWlLk6GJQsqaUBKTNV-1">
          <mxGeometry x="340" y="65" width="80" height="80" as="geometry" />
        </mxCell>
        <mxCell id="ym4Yz_Qm3gVudFvOybNQ-11" style="edgeStyle=orthogonalEdgeStyle;rounded=0;orthogonalLoop=1;jettySize=auto;html=1;entryX=0.5;entryY=0;entryDx=0;entryDy=0;" edge="1" parent="WIyWlLk6GJQsqaUBKTNV-1" source="ym4Yz_Qm3gVudFvOybNQ-4" target="ym4Yz_Qm3gVudFvOybNQ-5">
          <mxGeometry relative="1" as="geometry" />
        </mxCell>
        <mxCell id="ym4Yz_Qm3gVudFvOybNQ-39" value="yes" style="edgeLabel;html=1;align=center;verticalAlign=middle;resizable=0;points=[];" vertex="1" connectable="0" parent="ym4Yz_Qm3gVudFvOybNQ-11">
          <mxGeometry x="-0.113" y="-2" relative="1" as="geometry">
            <mxPoint as="offset" />
          </mxGeometry>
        </mxCell>
        <mxCell id="ym4Yz_Qm3gVudFvOybNQ-41" value="Yes" style="edgeLabel;html=1;align=center;verticalAlign=middle;resizable=0;points=[];" vertex="1" connectable="0" parent="ym4Yz_Qm3gVudFvOybNQ-11">
          <mxGeometry x="-0.0609" y="-1" relative="1" as="geometry">
            <mxPoint as="offset" />
          </mxGeometry>
        </mxCell>
        <mxCell id="ym4Yz_Qm3gVudFvOybNQ-14" style="edgeStyle=orthogonalEdgeStyle;rounded=0;orthogonalLoop=1;jettySize=auto;html=1;entryX=0.5;entryY=0;entryDx=0;entryDy=0;exitX=0.5;exitY=0;exitDx=0;exitDy=0;" edge="1" parent="WIyWlLk6GJQsqaUBKTNV-1" source="ym4Yz_Qm3gVudFvOybNQ-4" target="ym4Yz_Qm3gVudFvOybNQ-1">
          <mxGeometry relative="1" as="geometry">
            <Array as="points">
              <mxPoint x="490" y="45" />
              <mxPoint x="160" y="45" />
            </Array>
          </mxGeometry>
        </mxCell>
        <mxCell id="ym4Yz_Qm3gVudFvOybNQ-40" value="No" style="edgeLabel;html=1;align=center;verticalAlign=middle;resizable=0;points=[];" vertex="1" connectable="0" parent="ym4Yz_Qm3gVudFvOybNQ-14">
          <mxGeometry x="-0.9568" y="-1" relative="1" as="geometry">
            <mxPoint as="offset" />
          </mxGeometry>
        </mxCell>
        <mxCell id="ym4Yz_Qm3gVudFvOybNQ-4" value="Meets Business Objectives?" style="rhombus;whiteSpace=wrap;html=1;fillColor=#f5f5f5;fontColor=#333333;strokeColor=#666666;" vertex="1" parent="WIyWlLk6GJQsqaUBKTNV-1">
          <mxGeometry x="450" y="65" width="80" height="80" as="geometry" />
        </mxCell>
        <mxCell id="ym4Yz_Qm3gVudFvOybNQ-19" value="" style="edgeStyle=orthogonalEdgeStyle;rounded=0;orthogonalLoop=1;jettySize=auto;html=1;" edge="1" parent="WIyWlLk6GJQsqaUBKTNV-1" source="ym4Yz_Qm3gVudFvOybNQ-5" target="ym4Yz_Qm3gVudFvOybNQ-15">
          <mxGeometry relative="1" as="geometry" />
        </mxCell>
        <mxCell id="ym4Yz_Qm3gVudFvOybNQ-23" value="" style="edgeStyle=orthogonalEdgeStyle;rounded=0;orthogonalLoop=1;jettySize=auto;html=1;" edge="1" parent="WIyWlLk6GJQsqaUBKTNV-1" source="ym4Yz_Qm3gVudFvOybNQ-5" target="ym4Yz_Qm3gVudFvOybNQ-22">
          <mxGeometry relative="1" as="geometry" />
        </mxCell>
        <mxCell id="ym4Yz_Qm3gVudFvOybNQ-5" value="4. Elicit Requirements" style="whiteSpace=wrap;html=1;aspect=fixed;fillColor=#dae8fc;strokeColor=#6c8ebf;" vertex="1" parent="WIyWlLk6GJQsqaUBKTNV-1">
          <mxGeometry x="450" y="260" width="80" height="80" as="geometry" />
        </mxCell>
        <mxCell id="ym4Yz_Qm3gVudFvOybNQ-7" value="Stakeholders Matrix&amp;nbsp;" style="shape=document;whiteSpace=wrap;html=1;boundedLbl=1;fillColor=#f8cecc;strokeColor=#b85450;" vertex="1" parent="WIyWlLk6GJQsqaUBKTNV-1">
          <mxGeometry x="340" y="170" width="80" height="80" as="geometry" />
        </mxCell>
        <mxCell id="ym4Yz_Qm3gVudFvOybNQ-18" value="" style="edgeStyle=orthogonalEdgeStyle;rounded=0;orthogonalLoop=1;jettySize=auto;html=1;" edge="1" parent="WIyWlLk6GJQsqaUBKTNV-1" source="ym4Yz_Qm3gVudFvOybNQ-15" target="ym4Yz_Qm3gVudFvOybNQ-16">
          <mxGeometry relative="1" as="geometry" />
        </mxCell>
        <mxCell id="ym4Yz_Qm3gVudFvOybNQ-27" value="" style="edgeStyle=orthogonalEdgeStyle;rounded=0;orthogonalLoop=1;jettySize=auto;html=1;" edge="1" parent="WIyWlLk6GJQsqaUBKTNV-1" source="ym4Yz_Qm3gVudFvOybNQ-15" target="ym4Yz_Qm3gVudFvOybNQ-24">
          <mxGeometry relative="1" as="geometry" />
        </mxCell>
        <mxCell id="ym4Yz_Qm3gVudFvOybNQ-15" value="5. Scope Definition" style="whiteSpace=wrap;html=1;aspect=fixed;fillColor=#fff2cc;strokeColor=#d6b656;" vertex="1" parent="WIyWlLk6GJQsqaUBKTNV-1">
          <mxGeometry x="334" y="260" width="80" height="80" as="geometry" />
        </mxCell>
        <mxCell id="ym4Yz_Qm3gVudFvOybNQ-20" value="" style="edgeStyle=orthogonalEdgeStyle;rounded=0;orthogonalLoop=1;jettySize=auto;html=1;" edge="1" parent="WIyWlLk6GJQsqaUBKTNV-1" source="ym4Yz_Qm3gVudFvOybNQ-16" target="ym4Yz_Qm3gVudFvOybNQ-17">
          <mxGeometry relative="1" as="geometry" />
        </mxCell>
        <mxCell id="ym4Yz_Qm3gVudFvOybNQ-28" value="" style="edgeStyle=orthogonalEdgeStyle;rounded=0;orthogonalLoop=1;jettySize=auto;html=1;" edge="1" parent="WIyWlLk6GJQsqaUBKTNV-1" source="ym4Yz_Qm3gVudFvOybNQ-16" target="ym4Yz_Qm3gVudFvOybNQ-25">
          <mxGeometry relative="1" as="geometry" />
        </mxCell>
        <mxCell id="ym4Yz_Qm3gVudFvOybNQ-16" value="6. BA Delivery Plan" style="whiteSpace=wrap;html=1;aspect=fixed;fillColor=#f5f5f5;fontColor=#333333;strokeColor=#666666;" vertex="1" parent="WIyWlLk6GJQsqaUBKTNV-1">
          <mxGeometry x="230" y="260" width="80" height="80" as="geometry" />
        </mxCell>
        <mxCell id="ym4Yz_Qm3gVudFvOybNQ-29" value="" style="edgeStyle=orthogonalEdgeStyle;rounded=0;orthogonalLoop=1;jettySize=auto;html=1;" edge="1" parent="WIyWlLk6GJQsqaUBKTNV-1" source="ym4Yz_Qm3gVudFvOybNQ-17" target="ym4Yz_Qm3gVudFvOybNQ-26">
          <mxGeometry relative="1" as="geometry" />
        </mxCell>
        <mxCell id="ym4Yz_Qm3gVudFvOybNQ-42" style="edgeStyle=orthogonalEdgeStyle;rounded=0;orthogonalLoop=1;jettySize=auto;html=1;entryX=0;entryY=0.5;entryDx=0;entryDy=0;exitX=0;exitY=0.5;exitDx=0;exitDy=0;" edge="1" parent="WIyWlLk6GJQsqaUBKTNV-1" source="ym4Yz_Qm3gVudFvOybNQ-17" target="ym4Yz_Qm3gVudFvOybNQ-30">
          <mxGeometry relative="1" as="geometry">
            <mxPoint x="110" y="300" as="sourcePoint" />
            <mxPoint x="110" y="500" as="targetPoint" />
            <Array as="points">
              <mxPoint x="90" y="300" />
              <mxPoint x="90" y="500" />
            </Array>
          </mxGeometry>
        </mxCell>
        <mxCell id="ym4Yz_Qm3gVudFvOybNQ-17" value="7. Define Requirements" style="whiteSpace=wrap;html=1;aspect=fixed;fillColor=#d5e8d4;strokeColor=#82b366;" vertex="1" parent="WIyWlLk6GJQsqaUBKTNV-1">
          <mxGeometry x="120" y="260" width="80" height="80" as="geometry" />
        </mxCell>
        <mxCell id="ym4Yz_Qm3gVudFvOybNQ-22" value="Business Case" style="shape=document;whiteSpace=wrap;html=1;boundedLbl=1;fillColor=#60a917;fontColor=#ffffff;strokeColor=#2D7600;" vertex="1" parent="WIyWlLk6GJQsqaUBKTNV-1">
          <mxGeometry x="450" y="360" width="80" height="80" as="geometry" />
        </mxCell>
        <mxCell id="ym4Yz_Qm3gVudFvOybNQ-24" value="Scope Definition" style="shape=document;whiteSpace=wrap;html=1;boundedLbl=1;fillColor=#f5f5f5;fontColor=#333333;strokeColor=#666666;" vertex="1" parent="WIyWlLk6GJQsqaUBKTNV-1">
          <mxGeometry x="334" y="360" width="80" height="80" as="geometry" />
        </mxCell>
        <mxCell id="ym4Yz_Qm3gVudFvOybNQ-25" value="Governance/&lt;div&gt;Requirement Delivery Project Plan&lt;/div&gt;" style="shape=document;whiteSpace=wrap;html=1;boundedLbl=1;fillColor=#f8cecc;strokeColor=#b85450;" vertex="1" parent="WIyWlLk6GJQsqaUBKTNV-1">
          <mxGeometry x="230" y="360" width="80" height="80" as="geometry" />
        </mxCell>
        <mxCell id="ym4Yz_Qm3gVudFvOybNQ-26" value="Defined / Validated&lt;div&gt;Requirements&lt;/div&gt;" style="shape=document;whiteSpace=wrap;html=1;boundedLbl=1;fillColor=#dae8fc;strokeColor=#6c8ebf;" vertex="1" parent="WIyWlLk6GJQsqaUBKTNV-1">
          <mxGeometry x="120" y="360" width="80" height="80" as="geometry" />
        </mxCell>
        <mxCell id="ym4Yz_Qm3gVudFvOybNQ-43" value="" style="edgeStyle=orthogonalEdgeStyle;rounded=0;orthogonalLoop=1;jettySize=auto;html=1;" edge="1" parent="WIyWlLk6GJQsqaUBKTNV-1" source="ym4Yz_Qm3gVudFvOybNQ-30" target="ym4Yz_Qm3gVudFvOybNQ-31">
          <mxGeometry relative="1" as="geometry" />
        </mxCell>
        <mxCell id="ym4Yz_Qm3gVudFvOybNQ-30" value="8. Support Project Implementation&amp;nbsp;" style="whiteSpace=wrap;html=1;aspect=fixed;fillColor=#e1d5e7;strokeColor=#9673a6;" vertex="1" parent="WIyWlLk6GJQsqaUBKTNV-1">
          <mxGeometry x="120" y="460" width="80" height="80" as="geometry" />
        </mxCell>
        <mxCell id="ym4Yz_Qm3gVudFvOybNQ-34" value="" style="edgeStyle=orthogonalEdgeStyle;rounded=0;orthogonalLoop=1;jettySize=auto;html=1;" edge="1" parent="WIyWlLk6GJQsqaUBKTNV-1" source="ym4Yz_Qm3gVudFvOybNQ-31" target="ym4Yz_Qm3gVudFvOybNQ-33">
          <mxGeometry relative="1" as="geometry" />
        </mxCell>
        <mxCell id="ym4Yz_Qm3gVudFvOybNQ-36" value="" style="edgeStyle=orthogonalEdgeStyle;rounded=0;orthogonalLoop=1;jettySize=auto;html=1;" edge="1" parent="WIyWlLk6GJQsqaUBKTNV-1" source="ym4Yz_Qm3gVudFvOybNQ-31" target="ym4Yz_Qm3gVudFvOybNQ-32">
          <mxGeometry relative="1" as="geometry" />
        </mxCell>
        <mxCell id="ym4Yz_Qm3gVudFvOybNQ-31" value="9.&amp;nbsp;&lt;span style=&quot;background-color: initial;&quot;&gt;Measure Solution&lt;/span&gt;&lt;div&gt;Performance / value add&lt;/div&gt;" style="whiteSpace=wrap;html=1;aspect=fixed;fillColor=#fff2cc;strokeColor=#d6b656;" vertex="1" parent="WIyWlLk6GJQsqaUBKTNV-1">
          <mxGeometry x="230" y="460" width="80" height="80" as="geometry" />
        </mxCell>
        <mxCell id="ym4Yz_Qm3gVudFvOybNQ-35" style="edgeStyle=orthogonalEdgeStyle;rounded=0;orthogonalLoop=1;jettySize=auto;html=1;entryX=0.5;entryY=1;entryDx=0;entryDy=0;" edge="1" parent="WIyWlLk6GJQsqaUBKTNV-1" source="ym4Yz_Qm3gVudFvOybNQ-32" target="ym4Yz_Qm3gVudFvOybNQ-1">
          <mxGeometry relative="1" as="geometry">
            <Array as="points">
              <mxPoint x="374" y="680" />
              <mxPoint x="60" y="680" />
              <mxPoint x="60" y="180" />
              <mxPoint x="160" y="180" />
            </Array>
          </mxGeometry>
        </mxCell>
        <mxCell id="ym4Yz_Qm3gVudFvOybNQ-45" value="Yes" style="edgeLabel;html=1;align=center;verticalAlign=middle;resizable=0;points=[];" vertex="1" connectable="0" parent="ym4Yz_Qm3gVudFvOybNQ-35">
          <mxGeometry x="-0.9369" y="-1" relative="1" as="geometry">
            <mxPoint as="offset" />
          </mxGeometry>
        </mxCell>
        <mxCell id="ym4Yz_Qm3gVudFvOybNQ-38" value="" style="edgeStyle=orthogonalEdgeStyle;rounded=0;orthogonalLoop=1;jettySize=auto;html=1;" edge="1" parent="WIyWlLk6GJQsqaUBKTNV-1" source="ym4Yz_Qm3gVudFvOybNQ-32" target="ym4Yz_Qm3gVudFvOybNQ-37">
          <mxGeometry relative="1" as="geometry" />
        </mxCell>
        <mxCell id="ym4Yz_Qm3gVudFvOybNQ-46" value="No" style="edgeLabel;html=1;align=center;verticalAlign=middle;resizable=0;points=[];" vertex="1" connectable="0" parent="ym4Yz_Qm3gVudFvOybNQ-38">
          <mxGeometry x="-0.4697" y="-2" relative="1" as="geometry">
            <mxPoint as="offset" />
          </mxGeometry>
        </mxCell>
        <mxCell id="ym4Yz_Qm3gVudFvOybNQ-32" value="Potential improvements or New Projects?" style="rhombus;whiteSpace=wrap;html=1;fillColor=#dae8fc;strokeColor=#6c8ebf;" vertex="1" parent="WIyWlLk6GJQsqaUBKTNV-1">
          <mxGeometry x="334" y="460" width="80" height="80" as="geometry" />
        </mxCell>
        <mxCell id="ym4Yz_Qm3gVudFvOybNQ-33" value="&lt;div&gt;Solution Performance&lt;/div&gt;&lt;div&gt;Measures / ROI analysis&lt;/div&gt;" style="shape=document;whiteSpace=wrap;html=1;boundedLbl=1;fillColor=#f8cecc;strokeColor=#b85450;" vertex="1" parent="WIyWlLk6GJQsqaUBKTNV-1">
          <mxGeometry x="230" y="590" width="80" height="80" as="geometry" />
        </mxCell>
        <mxCell id="ym4Yz_Qm3gVudFvOybNQ-37" value="End" style="ellipse;whiteSpace=wrap;html=1;aspect=fixed;fillColor=#e1d5e7;strokeColor=#9673a6;" vertex="1" parent="WIyWlLk6GJQsqaUBKTNV-1">
          <mxGeometry x="465" y="475" width="50" height="50" as="geometry" />
        </mxCell>
        <mxCell id="ym4Yz_Qm3gVudFvOybNQ-44" value="&lt;h2 style=&quot;box-sizing: border-box; margin-block: 0.5rem 1rem; font-family: &amp;quot;Open Sans&amp;quot;, sans-serif; font-weight: 700; line-height: 1.2; color: rgb(51, 51, 51); font-style: normal; font-variant-ligatures: normal; font-variant-caps: normal; letter-spacing: normal; orphans: 2; text-align: justify; text-indent: 0px; text-transform: none; widows: 2; word-spacing: 0px; -webkit-text-stroke-width: 0px; white-space: normal; text-decoration-thickness: initial; text-decoration-style: initial; text-decoration-color: initial; font-size: 15px;&quot; id=&quot;h-business-analysis-process-flow-diagram&quot; class=&quot;wp-block-heading&quot;&gt;&lt;strong style=&quot;box-sizing: border-box; font-weight: bolder; font-size: 15px;&quot;&gt;&lt;font style=&quot;font-size: 15px;&quot;&gt;Business Analysis Process Flow Diagram (High Level)&lt;/font&gt;&lt;/strong&gt;&lt;/h2&gt;" style="text;whiteSpace=wrap;html=1;fontSize=15;labelBackgroundColor=none;" vertex="1" parent="WIyWlLk6GJQsqaUBKTNV-1">
          <mxGeometry x="100" width="455" height="40" as="geometry" />
        </mxCell>
        <mxCell id="ym4Yz_Qm3gVudFvOybNQ-47" value="" style="shape=image;verticalLabelPosition=bottom;labelBackgroundColor=default;verticalAlign=top;aspect=fixed;imageAspect=0;image=data:image/png,iVBORw0KGgoAAAANSUhEUgAAA+gAAAPoCAYAAABNo9TkAAAAAXNSR0IArs4c6QAAIABJREFUeF7s3XmcTnX/x/GPdcxmzDC2YWwVUVKUou5006ZFK3X/uLWQEiVudFsqRXd0k6KV6hYVlUp7Im1IUVJEWYexm8Esdn6P73TP3VxzXTNzLed7ru855+XPOtf3fL7Pz/e65ryvc65zykmnRSeEfwgggAACCCCAAAIIIIAAAgggEFWBcgT0qPqzcwQQQAABBBBAAAEEEEAAAQQKBAjoLAQEEEAAAQQQQAABBBBAAAEEDBAgoBvQBEpAAAEEEEAAAQQQQAABBBBAgIDOGkAAAQQQQAABBBBAAAEEEEDAAAECugFNoAQEEEAAAQQQQAABBBBAAAEECOisAQQQQAABBBBAAAEEEEAAAQQMECCgG9AESkAAAQQQQAABBBBAAAEEEECAgM4aQAABBBBAAAEEEEAAAQQQQMAAAQK6AU2gBAQQQAABBBBAAAEEEEAAAQQI6KwBBBBAAAEEEEAAAQQQQAABBAwQIKAb0ARKQAABBBBAAAEEEEAAAQQQQICAzhpAAAEEEEAAAQQQQAABBBBAwAABAroBTaAEBBBAAAEEEEAAAQQQQAABBAjorAEEEEAAAQQQQAABBBBAAAEEDBAgoBvQBEpAAAEEEEAAAQQQQAABBBBAgIDOGkAAAQQQQAABBBBAAAEEEEDAAAECugFNoAQEEEAAAQQQQAABBBBAAAEECOisAQQQQAABBBBAAAEEEEAAAQQMECCgG9AESkAAAQQQQAABBBBAAAEEEECAgM4aQAABBBBAAAEEEEAAAQQQQMAAAQK6AU2gBAQQQAABBBBAAAEEEEAAAQQI6KwBBBBAAAEEEEAAAQQQQAABBAwQIKAb0ARKQAABBBBAAAEEEEAAAQQQQICAzhpAAAEEEEAAAQQQQAABBBBAwAABAroBTaAEBBBAAAEEEEAAAQQQQAABBAjorAEEEEAAAQQQQAABBBBAAAEEDBAgoBvQBEpAAAEEEEAAAQQQQAABBBBAgIDOGkAAAQQQQAABBBBAAAEEEEDAAAECugFNoAQEEEAAAQQQQAABBBBAAAEECOisAQQQQAABBBBAAAEEEEAAAQQMECCgG9AESkAAAQQQQAABBBBAAAEEEECAgM4aQAABBBBAAAEEEEAAAQQQQMAAAQK6AU2gBAQQQAABBBBAAAEEEEAAAQQI6KwBBBBAAAEEEEAAAQQQQAABBAwQIKAb0ARKQAABBBBAAAEEEEAAAQQQQICAzhpAAAEEEEAAAQQQQAABBBBAwAABAroBTaAEBBBAAAEEEEAAAQQQQAABBAjorAEEEEAAAQQQQAABBBBAAAEEDBAgoBvQBEpAAAEEEEAAAQQQQAABBBBAgIDOGkAAAQQQQAABBBBAAAEEEEDAAAECugFNoAQEEEAAAQQQQAABBBBAAAEECOisAQQQQAABBBBAAAEEEEAAAQQMECCgG9AESkAAAQQQQAABBBBAAAEEEECAgM4aQAABBBBAAAEEEEAAAQQQQMAAAQK6AU2gBAQQQAABBBBAAAEEEEAAAQQI6KwBBBBAAAEEEEAAAQQQQAABBAwQIKAb0ARKQAABBBBAAAEEEEAAAQQQQICAzhpAAAEEEEAAAQQQQAABBBBAwAABAroBTaAEBBBAAAEEEEAAAQQQQAABBAjorAEEEEAAAQQQQAABBBBAAAEEDBAgoBvQBEpAAAEEEEAAAQQQQAABBBBAgIDOGkAAAQQQQAABBBBAAAEEEEDAAAECugFNoAQEEEAAAQQQQAABBBBAAAEECOisAQQQQAABBBBAAAEEEEAAAQQMECCgG9AESkAAAQQQQAABBBBAAAEEEECAgM4aQAABBBBAAAEEEEAAAQQQQMAAAQK6AU2gBAQQQAABBBBAAAEEEEAAAQQI6KwBBBBAAAEEEEAAAQQQQAABBAwQIKAb0ARKQAABBBBAAAEEEEAAAQQQQICAzhpAAAEEEEAAAQQQQAABBBBAwAABAroBTaAEBBBAAAEEEEAAAQQQQAABBAjorAEEEEAAAQQQQAABBBBAAAEEDBAgoBvQBEpAAAEEEEAAAQQQQAABBBBAgIDOGkAAAQQQQAABBBBAAAEEEEDAAAECugFNoAQEEEAAAQQQQAABBBBAAAEECOisAQQQQAABBBBAAAEEEEAAAQQMECCgG9AESkAAAQQQQAABBBBAAAEEEECAgM4aQAABBBBAAAEEEEAAAQQQQMAAAQK6AU2gBAQQQAABBBBAAAEEEEAAAQQI6KwBBBBAAAEEEEAAAQQQQAABBAwQIKAb0ARKQAABBBBAAAEEEEAAAQQQQICAzhpAAAEEEEAAAQQQQAABBBBAwAABAroBTaAEBBBAAAEEEEAAAQQQQAABBAjorAEEEEAAAQQQQAABBBBAAAEEDBAgoBvQBEpAAAEEEEAAAQQQQAABBBBAgIDOGkAAAQQQQAABBBBAAAEEEEDAAAECugFNoAQEEEAAAQQQQAABBBBAAAEECOisAQQQQAABBBBAAAEEEEAAAQQMECCgG9AESkAAAQQQQAABBBBAAAEEEECAgM4aQAABBBBAAAEEEEAAAQQQQMAAAQK6AU2gBAQQQAABBBBAAAEEEEAAAQQI6KwBBBBAAAEEEEAAAQQQQAABBAwQIKAb0ARKQAABBBBAAAEEEEAAAQQQQICAzhpAAAEEEEAAAQQQQAABBBBAwAABAroBTaAEBBBAAAEEEEAAAQQQQAABBAjorAEEEEAAAQQQQAABBBBAAAEEDBAgoBvQBEpAAAEEEEAAAQQQQAABBBBAgIDOGkAAAQQQQAABBBBAAAEEEEDAAAECugFNoAQEEEAAAQQQQAABBBBAAAEECOisAQQQQAABBBBAAAEEEEAAAQQMECCgG9AESkAAAQQQQAABBBBAAAEEEECAgM4aQAABBBBAAAEEEEAAAQQQQMAAAQK6AU2gBAQQQAABBBBAAAEEEEAAAQQI6KwBBBBAAAEEEEAAAQQQQAABBAwQIKAb0ARKQAABBBBAAAEEEEAAAQQQQICAzhpAAAEEEEAAAQQQQAABBBBAwAABAroBTaAEBBBAAAEEEEAAAQQQQAABBAjorAEEEEAAAQQQQAABBBBAAAEEDBAgoBvQBEpAAAEEEEAAAQQQQAABBBBAgIDOGkAAAQQQQAABBBBAAAEEEEDAAAECugFNoAQEEEAAAQQQQAABBBBAAAEECOisAQQQQAABBBBAAAEEEEAAAQQMECCgG9AESkAAAQQQQAABBBBAAAEEEECAgM4aQAABBBBAAAEEEEAAAQQQQMAAAQK6AU2gBAQQQAABBBBAAAEEEEAAAQQI6KwBBBBAAAEEEEAAAQQQQAABBAwQIKAb0ARKQAABBBBAAAEEEEAAAQQQQICAzhpAAAEEEEAAAQQQQAABBBBAwAABAroBTaAEBBBAAAEEEEAAAQQQQAABBAjorAEEEEAAAQQQQAABBBBAAAEEDBAgoBvQBEpAAAEEEEAAAQQQQAABBBBAgIDOGkAAAQQQQAABBBBAAAEEEEDAAAECugFNoAQEEEAAAQQQQAABBBBAAAEECOisAQQQQAABBBBAAAEEEEAAAQQMECCgG9AESkAAAQQQQAABBBBAAAEEEECAgM4aQAABBBBAAAEEEEAAAQQQQMAAAQK6AU2gBAQQQAABBBBAAAEEEEAAAQQI6KwBBBBAAAEEEEAAAQQQQAABBAwQIKAb0ARKQAABBBBAAAEEEEAAAQQQQICAzhpAAAEEEEAAAQQQQAABBBBAwAABAroBTaAEBBBAAAEEEEAAAQQQQAABBAjorAEEEEAAAQQQQAABBBBAAAEEDBAgoBvQBEpAAAEEEEAAAQQQQAABBBBAgIDOGkAAAQQQQAABBBBAAAEEEEDAAAECugFNoAQEEEAAAQQQQAABBBBAAAEECOisAQQQQAABBBBAAAEEEEAAAQQMECCgG9AESkAAAQQQQAABBBBAAAEEEECAgM4aQAABBBBAAAEEEEAAAQQQQMAAAQK6AU2gBAQQQAABBBBAAAEEEEAAAQQI6KwBBBBAAAEEEEAAAQQQQAABBAwQIKAb0ARKQAABBBBAAAEEEEAAAQQQQICAzhpAAAEEEEAAAQQQQAABBBBAwAABAroBTaAEBBBAAAEEEEAAAQQQQAABBAjorAEEEEAAAQQQQAABBBBAAAEEDBAgoBvQBEpAAAEEEEAAAQQQQAABBBBAgIDOGkAAAQQQQAABBBBAAAEEEEDAAAECugFNoAQEEEAAAQQQQAABBBBAAAEECOisAQQQQAABBBBAAAEEEEAAAQQMECCgG9AESkAAAQQQQAABBBBAAAEEEECAgM4aQAABBBBAAAEEEEAAAQQQQMAAAQK6AU2gBAQQQAABBBBAAAEEEEAAAQQI6KwBBBBAAAEEEEAAAQQQQAABBAwQIKAb0ARKQAABBBBAAAEEEEAAAQQQQICAzhpAAAEEEEAAAQQQQAABBBBAwAABAroBTaAEBBBAAAEEEEAAAQQQQAABBAjorAEEEEAAAQQQQAABBBBAAAEEDBAgoBvQBEpAAAEEEEAAAQQQQAABBBBAgIDOGkAAAQQQQAABBBBAAAEEEEDAAAECugFNoAQEEEAAAQQQQAABBBBAAAEECOisAQQQQAABBBBAAAEEEEAAAQQMECCgG9AESkAAAQQQQAABBBBAAAEEEECAgM4aQAABBBBAAAEEEEAAAQQQQMAAAQK6AU2gBAQQQAABBBBAAAEEEEAAAQQI6KwBBBBAAAEEEEAAAQQQQAABBAwQIKAb0ARKQAABBBBAAAEEEEAAAQQQQICAzhpAAAEEEEAAAQQQQAABBBBAwAABAroBTaAEBBBAAAEEEEAAAQQQQAABBAjorAEEEEAAAQQQQAABBBBAAAEEDBAgoBvQBEpAAAEEEEAAAQQQQAABBBBAgIDOGkAAAQQQQAABBBBAAAEEEEDAAAECugFNoAQEEEAAAQQQQAABBBBAAAEECOisAQQQQAABBBBAAAEEEEAAAQQMECCgG9AESkAAAQQQQAABBBBAAAEEEECAgM4aQAABBBBAAAEEEEAAAQQQQMAAAQK6AU2gBAQQQAABBBBAAAEEEEAAAQQI6KwBBBBAAAEEEEAAAQQQQAABBAwQIKAb0ARKQAABBBBAAAEEEEAAAQQQQICAzhpAAAEEEEAAAQQQQAABBBBAwAABAroBTaAEBBBAAAEEEEAAAQQQQAABBAjorAEEEEAAAQQQQAABBBBAAAEEDBAgoBvQBEpAAAEEEEAAAQQQQAABBBBAgIDOGkAAAQQQQAABBBBAAAEEEEDAAAECugFNoAQEEEAAAQQQQAABBBBAAAEECOisAQQQQAABBBBAAAEEEEAAAQQMECCgG9AESkAAAQQQQAABBBBAAAEEEECAgM4aQAABBBBAAAEEEEAAAQQQQMAAAQK6AU2gBAQQQAABBBBAAAEEEEAAAQQI6KwBBBBAAAEEEEAAAQQQQAABBAwQIKAb0ARKQAABBBBAAAEEEEAAAQQQQICAzhpAAAEEEEAAAQQQQAABBBBAwAABAroBTaAEBBBAAAEEEEAAAQQQQAABBAjorAEEEEAAAQQQQAABBBBAAAEEDBAgoBvQBEpAAAEEEEAAAQQQQAABBBBAgIDOGkAAAQQQQAABBBBAAAEEEEDAAAECugFNoAQEEEAAAQQQQAABBBBAAAEECOisAQQQQAABBBBAAAEEEEAAAQQMECCgG9AESkAAAQQQQAABBBBAAAEEEECAgM4aQAABBBBAAAEEEEAAAQQQQMAAAQK6AU2gBAQQQAABBBBAAAEEEEAAAQQI6KwBBBBAAAEEEEAAAQQQQAABBAwQIKAb0ARKQAABBBBAAAEEEEAAAQQQQICAzhpAAAEEEEAAAQQQQAABBBBAwAABAroBTaAEBBBAAAEEEEAAAQQQQAABBAjorAEEEEAAAQQQQAABBBBAAAEEDBAgoBvQBEpAAAEEEEAAAQQQQAABBBBAgIDOGkAAAQQQQAABBBBAAAEEEEDAAAECugFNoAQEEEAAAQQQQAABBBBAAAEECOisAQQQQAABBBBAAAEEEEAAAQQMECCgG9AESkAAAQQQQAABBBBAAAEEEECAgM4aQAABBBBAAAEEEEAAAQQQQMAAAQK6AU2gBAQQQAABBBBAAAEEEEAAAQQI6KwBBBBAAAEEEEAAAQQQQAABBAwQIKAb0ARKQAABBBBAAAEEEEAAAQQQQICAzhpAAAEEEEAAAQQQQAABBBBAwAABAroBTaAEBBBAAAEEEEAAAQQQQAABBAjorAEEEEAAAQQQQAABBBBAAAEEDBAgoBvQBEpAAAEEEEAAAQQQQAABBBBAgIDOGkAAAQQQQAABBBBAAAEEEEDAAAECugFNoAQEEEAAAQQQQAABBBBAAAEECOisAQQQQAABBBBAAAEEEEAAAQQMECCgG9AESkAAAQQQQAABBBBAAAEEEECAgM4aQAABBBBAAAEEEEAAAQQQQMAAAQK6AU2gBAQQQAABBBBAAAEEEEAAAQQI6KwBBBBAAAEEEEAAAQQQQAABBAwQIKAb0ARKQAABBBBAAAEEEEAAAQQQQICAzhpAAAEEEEAAAQQQQAABBBBAwAABAroBTaAEBBBAAAEEEEAAAQQQQAABBAjorAEEEEAAAQQQQAABBBBAAAEEDBAgoBvQBEpAAAEEEEAAAQQQQAABBBBAgIDOGkAAAQQQQAABBBBAAAEEEEDAAAECugFNoAQEEEAAAQQQQAABBBBAAAEECOisAQQQQAABBBBAAAEEEEAAAQQMECCgG9AESkAAAQQQQAABBBBAAAEEEECAgM4aQAABBBBAAAEEEEAAAQQQQMAAAQK6AU2gBAQQQAABBBBAAAEEEEAAAQQI6KwBBBBAAAEEEEAAAQQQQAABBAwQIKAb0ARKQAABBBBAAAEEEEAAAQQQQICAzhpAAAEEEEAAAQQQQAABBBBAwAABAroBTaAEBBBAAAEEEEAAAQQQQAABBAjorAEEEEAAAQQQQAABBBBAAAEEDBAgoBvQBEpAAAEEEEAAAQQQQAABBBBAgIDOGkAAAQQQQAABBBBAAAEEEEDAAAECugFNoAQEEEAAAQQQQAABBBBAAAEECOisAQQQQAABBBBAAAEEEEAAAQQMECCgG9AESkAAAQQQQAABBBBAAAEEEECAgM4aQAABBBBAAAEEEEAAAQQQQMAAAQK6AU2gBAQQQAABBBBAAAEEEEAAAQQI6KwBBBBAAAEEEEAAAQQQQAABBAwQIKAb0ARKQAABBBBAAAEEEEAAAQQQQICAzhpAAAEEEEAAAQQQQAABBBBAwAABAroBTaAEBBBAAAEEEEAAAQQQQAABBAjorAEEEEAAAQQQQAABBBBAAAEEDBAgoBvQBEpAAAEEEEAAAQQQQAABBBBAgIDOGkAAAQQQQAABBBBAAAEEEEDAAAECugFNoAQEEEAAAQQQQAABBBBAAAEECOisAQQQQAABBBBAAAEEEEAAAQQMECCgG9AESkAAAQQQQAABBBBAAAEEEECAgM4aQAABBBBAAAEEEEAAAQQQQMAAAQK6AU2gBAQQQAABBBBAAAEEEEAAAQQI6KwBBBBAAAEEEEAAAQQQQAABBAwQIKAb0ARKQAABBBBAAAEEEEAAAQQQQICAzhpAAAEEEEAAAQQQQAABBBBAwAABAroBTaAEBBBAAAEEEEAAAQQQQAABBAjorAEEEEAAAQQQQAABBBBAAAEEDBAgoBvQBEpAAAEEEEAAAQQQQAABBBBAgIDOGkAAAQQQQAABBBBAAAEEEEDAAAECugFNoAQEEEAAAQQQQAABBBBAAAEECOisAQQQQAABBBBAAAEEEEAAAQQMECCgG9AESkAAAQQQQAABBBBAAAEEEECAgM4aQAABBBBAAAEEEEAAAQQQQMAAAQK6AU2gBAQQQAABBBBAAAEEEEAAAQQI6KwBBBBAAAEEEEAAAQQQQAABBAwQIKAb0ARKQAABBBBAAAEEEEAAAQQQQICAzhpAAAEEEEAAAQQQQAABBBBAwAABAroBTaAEBBBAAAEEEEAAAQQQQAABBAjorAEEEEAAAQQQQAABBBBAAAEEDBAgoBvQBEpAAAEEEEAAAQQQQAABBBBAgIDOGkAAAQQQQAABBBBAAAEEEEDAAAECugFNoAQEEEAAAQQQQAABBBBAAAEECOisAQQQQAABBBBAAAEEEEAAAQQMECCgG9AESkAAAQQQQAABBBBAAAEEEECAgM4aQAABBBBAAAEEEEAAAQQQQMAAAQK6AU2gBAQQQAABBBBAAAEEEEAAAQQI6KwBBBBAAAEEEEAAAQQQQAABBAwQIKAb0ARKQAABBBBAAAEEEEAAAQQQQICAzhpAAAEEEEAAAQQQQAABBBBAwAABAroBTaAEBBBAAAEEEEAAAQQQQAABBAjorAEEEEAAAQQQQAABBBBAAAEEDBAgoBvQBEpAAAEEEEAAAQQQQAABBBBAgIDOGkAAAQQQQAABBBBAAAEEEEDAAAECugFNoAQEEEAAAQQQQAABBBBAAAEECOisAQQQQAABBBBAAAEEEEAAAQQMECCgG9AESkAAAQQQQAABBBBAAAEEEECAgM4aQAABBBBAAAEEEEAAAQQQQMAAAQK6AU2gBAQQQAABBBBAAAEEEEAAAQQI6KwBBBBAAAEEEEAAAQQQQAABBAwQIKAb0ARKsFYgPjZfWjb9VZo1XitN0jdK/TpbpXaNXZJSdZ/Ex+VJ5UpHCnZ4+EglycuPl6z9SbJ9d6ps3lZX1mU0lNXrT5IVa06VvANx1hbGaAgggAACCCCAAAIIIIBAKQIEdJaHKwRat1ghHc5ZLO3OWiqtmq20ZE7LV7eQRT+0kS++O0+WrWxpyZgMggACCCCAAAIIIIAAAgiUJEBAZ204VqBx/Qy5ttPHcmWHeZJeN1PrPDK2pskHX3SSd+ZdLus3p2vdF4MjgAACCCCAAAIIIICANwUI6N7su6NnfV6rZdKjy2y59PwvojKPT7/pINPnXC+Ll7eOyv7ZKQIIIIAAAggggAACCLhTgIDuzr66clbqMva7bp4uF7VdaMT8FixpL8++3oPL343oBkUggAACCCCAAAIIIOB8AQK683vo+hkkV90ng257Tm6+Yk7Qc92YWV9+Wn1qwQ3fNmxJl8wddWRXdork5CXIocOVC8aJqXxYEuNzJTU5S9JqbZNG9TOkWaO1ckazX6Vh2uag9/X6h11k/Et3Svb+pKBfw4YIIIAAAggggAACCCCAQHEBAjprwmiBazp9IsP7TJKUatll1qnOaM9f3F6+XtZWtmyvU+b2pW1Qr/Y2uaD1Eul43sKgzthn7U2WMc/3l3fnXRbRfnkxAggggAACCCCAAAIIeFeAgO7d3hs/89EDxpZ51lydKZ/10VUFN2/blVVdy5xSU/YU3IyuW+f3yzyzrs6mj5g4VEsdDIoAAggggAACCCCAAALuFiCgu7u/jpydujv740MeKfVxaWs2NJGpb94sb3/W2dY5XnfxR9LrxtelaaN1Je5XPZ5t8LiR3O3d1s6wMwQQQAABBBBAAAEEnC9AQHd+D101A3WH9qeGP1DiJe25+fEy4T+9Zdo7XaM6757XviEDb5kiCXF5AetQl7zfM+Zh7vQe1S6xcwQQQAABBBBAAAEEnCVAQHdWv1xdbad2X8tzD90v5cqdCDjPOfMvlX+90E/bpeyh4qpL3/95x2Tp0vHTgC89caKc3PnQYzJv0QWhDs32CCCAAAIIIIAAAggg4EEBAroHm27ilFU4f35Uyb/dVr/rVr/vNvGfuru8+r18Sf/6PDiWkG5i46gJAQQQQAABBBBAAAHDBAjohjXEi+Woy9qnj7sn4JlzdRO4QWMfkOW/tjCaptWpK2X80IcD3kROnUnvMeQpLnc3uoMUhwACCCCAAAIIIIBA9AUI6NHvgacrUDeEmzXhroC/OV/6yxnS75HRxlzSXlaj1CXvk0eOkDan/eS3qfpNereBz3LjuLIQ+f8IIIAAAggggAACCHhYgIDu4eabMPXZk3oHvFv7wh/OljtGjpODh2NMKDPoGqpUPiQvPDJE2p/1vd9r1N3dr+8/Jeix2BABBBBAAAEEEEAAAQS8JUBA91a/jZptSc85V2fOew6d6LhwXoirQvq0sQMCnknnOelGLUGKQQABBBBAAAEEEEDAKAECulHt8E4x13T6pOA328X/qd+c3zTwGcdc1l5Sx9Tl7jMn9A34m3T1m/p3513mnWYzUwQQQAABBBBAAAEEEAhKgIAeFBMbWSmQXHWfzH3xbwF/d379PVOMvyFcsBbqxnGzn+rtt7n6Pfolt78m2fuTgh2K7RBAAAEEEEAAAQQQQMADAgR0DzTZtCmWdGm7yY9SC9ewpEewcal7uKK8DgEEEEAAAQQQQAAB9woQ0N3bWyNn1rrFCnlj4p1+tc2Zf6kMfOxBI2uOtKgJ94+SLh0/9Rum64DnZNnKlpEOz+sRQAABBBBAAAEEEEDAJQIEdJc00inTmDp6sFzUdqFPubn58dLp1pmO/915ST1Qv0ef9/JNkhCX57PJgiXtpdeIx53SOupEAAEEEEAAAQQQQAABzQIEdM3ADP+nwHmtlsmMx/v7kTz8zACZ9k5XV1P1vPYNeaDvRL85dh88SRYvb+3quTM5BBBAAAEEEEAAAQQQCE6AgB6cE1tZIPDMg8Pk0vO/8BlpzYYm0vmO6RaMbv4QH73QQ5o2WudT6KffdJC+ox41v3gqRAABBBBAAAEEEEAAAe0CBHTtxOxACTSunyGfvXSTH8bgcSPk7c86ewLpuos/kseHjPab68W3zZT1m9M9YcAkEUAAAQQQQAABBBBAoGQBAjqrwxaBQbc+L33/Ns1nX+qZ5x1vmWXL/k3Zyfz/dPN7Nvozr/WU8S/3MaVE6kAAAQQQQAABBBBAAIEoCRDQowTvtd0umHajpNfN9JmJcaGEAAAgAElEQVT22Cl95YU3unuK4o6uM2Ro72d85pyxNU0u6vmmpxyYLAIIIIAAAggggAACCPgLENBZFdoFSnq02rnd3nftndtLQlV3dP921lV+/5tHrmlfhuwAAQQQQAABBBBAAAHjBQjoxrfI+QUGurzdy48YC/SoOS5zd/46ZwYIIIAAAggggAACCEQqQECPVJDXlykwe1JvadVspc92IyYOkdc/vKbM17pxg5uveFdGDxjnM7Xlq1vI9f2nuHG6zAkBBBBAAAEEEEAAAQSCFCCgBwnFZuEJxMfmy4r3Ovm9+MIes2XL9jrhDerwV9WrvU2+nH693yxaXj1P8g7EOXx2lI8AAggggAACCCCAAALhChDQw5XjdUEJnNdqmcx4vL/Ptl68e3txrEB3c+8+eJIsXt46KFc2QgABBBBAAAEEEEAAAfcJENDd11OjZnTrdbNkxF1P+tQ0Z/4lMvCxh4yq0+5iJtz/kHTpONdnt6OfvVdefrub3aWwPwQQQAABBBBAAAEEEDBEgIBuSCPcWsboAWPl5ivm+Exv7NS+8sIsbz1erXh/Az1u7fUPu8iIiUPduhSYFwIIIIAAAggggAACCJQhQEBniWgVmDb2Xjn/rO999nHng4/JZ4v+onW/pg9+cbuv5LlR9/uU+c0PZ0vPob5XG5g+D+pDAAEEEEAAAQQQQAAB6wQI6NZZMlIAgU9f/JuclL7R5/9cdec0WbXuZE97NW/yu7z/XE8fg7UZDeXS21/ztAuTRwABBBBAAAEEEEDAywIEdC9334a5f//mFZJSLdtnT+d2e192ZVW3Ye/m7iI1ZY98O+sqnwKz9ibL2Td+aG7RVIYAAggggAACCCCAAAJaBQjoWnkZfNWHHSSm8mEfiBZXLpCDh2I8jVMl5pCs/OAiH4NDhytL8yu+8LQLk0cAAQQQQAABBBBAwMsCBHQvd9+Gua+d217KlTvhs6eTLlkoJ06Us2Hv5u5CmSibov+UibLhHwIIIIAAAggggAACCHhTgIDuzb7bNmsCemBqArptS5AdIYAAAggggAACCCDgGAECumNa5cxCucQ9cN+4xN2Z65mqEUAAAQQQQAABBBDQKUBA16nL2MJN4gIvAm4Sx5sDAQQQQAABBBBAAAEEigsQ0FkTWgV4zFpgXh6zpnXZMTgCCCCAAAIIIIAAAo4UIKA7sm3OKXra2Hvl/LO+9yn4zgcfk88W/cU5k9BQ6cXtvpLnRt3vM/I3P5wtPYc+qWFvDIkAAggggAACCCCAAAJOECCgO6FLDq5x9ICxcvMVc3xmMHZKX3nhje4OnlXkpd/RbYYM7fWMz0Cvf9hFRkwcGvngjIAAAggggAACCCCAAAKOFCCgO7Jtzin61utmyYi7fM8Kz5l/iQx87CHnTEJDpRPuf0i6dJzrM/LoZ++Vl9/upmFvDIkAAgggYKJAbEwFOblBgjRKi5P6tWKlVvUqUqNaZamaUFHiYipIxYrlC8o+evS45B86Jvtzj8ruvYdlx56DsnnHAdmQmS+/b8qVA4eOmTg9akIAAQQQCEOAgB4GGi8JXuC8VstkxuP9fV6wMbO+dLxlVvCDuHDL+f/pJg3TNvvMrPvgSbJ4eWsXzpYpIYAAAggUCjRvnChtmifLGU2TpGnDBEtg1mzMlZ/W7JOlq7Jl1focS8ZkEAQQQACB6AgQ0KPj7pm9xsfmy4r3OvnN98Ies2XL9jqecSg60Xq1t8mX06/3m3vLq+dJ3oE4T5owaQQQQMDNAvVqxspfz0mVC1pXlzo1qmid6rbdB+XrZXvk8+92yZadB7Tui8ERQAABBKwXIKBbb8qIxQRmT+otrZqt9PmvIyYOkdc/vMaTVjdf8a6MHjDOZ+7LV7eQ6/tP8aQHk0YAAQTcKtDylCS58i+1pd0ZKVGZ4qKfsuSDr7bLit/2RWX/7BQBBBBAIHQBAnroZrwiRIFBtz4vff82zedVC5a0l14jHg9xJHdsPnX0YLmo7UKfyTzzWk8Z/3Ifd0yQWSCAAAIeF1CXsd94SZqc3SLZCInvV2bLm3MzufzdiG5QBAIIIFC6AAGdFaJdoHWLFfLGxDv99nNut/dlV1Z17fs3aQepKXvk21lX+ZXUdcBzsmxlS5NKpRYEEEAAgRAFEuMrSs+r0uWy9rWCfuXWXQflt025siEzTzJ3HpSdWYcke/9hyTtwTI4cPV4wTqWK5SU+toIkV60sNVNiJK1mFWmUFi+nNEiQuqnBXzL/ycIdMu39DMnJOxp0fWyIAAIIIGCvAAHdXm/P7m3BtBslvW6mz/y9+Li1O7rOkKG9fR+vlrE1TS7q+aZn1wYTRwABBNwgcNHZqdLrugaSlFCpzOmoM9pLfs6WH1fvlR17DpW5fWkb1KoeI2c2qyZtT08O6oz9vtwjMvXtTbLg+10R7ZcXI4AAAgjoESCg63Fl1GICgS5z9+Ld3APdvZ3L23m7IIAAAs4W6HdT4zLPmqsz5Z8u2lFw87bs/Ue0TDi5aqWCm9Fd2q5WmWfW1dn0yTPXa6mDQRFAAAEEwhcgoIdvxytDEGhcP0M+e+kmv1cMHjdC3v6scwgjOXfT6y7+SB4fMtpvAhffNlPWb0537sSoHAEEEPCogLo7+309Tir1cWkbt+bLO59vlflL7D1j3bFtqlz717rSsG7JTwdRj2d7Yvpa7vbu0fXLtBFAwEwBArqZfXFlVc88OEwuPf8Ln7mt2dBEOt8x3ZXzLT6pj17oIU0brfP5z59+00H6jnrUE/NnkggggICbBNQd2ofeenKJl7TnHzwmMz7YLO99uS2q0776wjrS/cr6ElelQsA61CXvY1/+nTu9R7VL7BwBBBD4U4CAzmqwTeC8VstkxuP9/fb38DMDZNo7XW2rIxo76nntG/JA34l+u+4+eJIsXt46GiWxTwQQQACBMAXObZkiw3s1lXLlAg/wxdLd8uI7G7Vdyh5q2erS99uvbSgd2tQI+NITJ0TGTF0j367ICnVotkcAAQQQsFiAgG4xKMOVLhDoEWO5+fHS6daZrr2ju7pz+7yXb5KEuDwfHC8/ao73CQIIIOBUARXOR/RuWmL56nfd6vfdJv5Td5dXv5cv6d/oKYR0E/tGTQgg4C0BArq3+h312Zb0yLU58y+VgY89GPX6dBQw4f5R0qXjp35D82g1HdqMiQACCOgTUJe1j+nXPOCZ8607D8r46b+L+l23yf+aNkyQQT1Olro1/R/Pps6kD5+8isvdTW4gtSGAgOsFCOiub7F5Exw9YKzcfMUcv8JGTBwqr3/YxbyCI6hIzVPNt/g/NU81X/4hgAACCDhDQN0Qbux9LQL+5nzluhx57KU1xlzSXpaouuT9/tuaSosmiX6bqt+kD31iJTeOKwuR/48AAghoEiCga4Jl2JIFkqvuk7kv/k1SqmX7bXT9PVNk+a8tXMHX6tSVMvup3n5zydqbLJfc/ppk709yxTyZBAIIIOAFgfGDTg94t/bla/bJw8+vlsNHjjuKoXKl8vJAn2bSqqn/3yJ1FcCg8T87aj4UiwACCLhFgIDulk46bB7XdPpExg992K9q9Wz0mwY+4/jfo6vfnc+c0Fcapm32m+OgsQ/Iu/Muc1jHKBcBBBDwrkBJzzlXZ85HPr3KceG8sJMqpD9yd/OAZ9J5Trp31zszRwCB6AoQ0KPr7+m9l3Sp+9JfzpCeQyfKwcMxjvSpUvmQTBs7QNqc9pNf/Vza7siWUjQCCHhY4KKzU2XQ30/yE1C/OR/65C+Ouay9pBaqy93H3ntawN+kj39lrSz43t7nt3t4qTF1BBBAoECAgM5CiKrA7Em9pVWzlX41LPzhbLlj5DjHhXQVzl94ZIi0P+t7vzktX91Cru8/Jare7BwBBBBAIHiBxPiK8tyIVgF/d64uATf9hnDBzlTdOE5dwl/8n/o9+p2jl0tO3tFgh2I7BBBAAIEIBQjoEQLy8sgEGtfPkFkT7gr4e3R1Jr3fI6Mdc7m7uqx98sgRAc+cq9+ddxv4rKzfnB4ZGK9GAAEEELBNoKRL201+lFq4OCU9go1L3cMV5XUIIIBAeAIE9PDceJWFAue1WibTx90j5cqd8BtV/SZd/Wbb9BvHqRvCqd/UB/rN+YkT5aTHkKdk8fLWFqoxFAIIIICAToHmjRNl3H2n+e3ii6W75d/Tfte566iN/Y+eJ0uHNjX89j/kiV9k1fqcqNXFjhFAAAEvCRDQvdRtg+faqd3X8vyokh87ZvIj2Ep6lFohd58Hx8q8RRcYrE9pCCCAAALFBR68s5mc3SLZ5z/nHzwmfR750fG/Oy+p2+r36M+PPFPiqlTw2eT7ldky6rnVLBIEEEAAARsECOg2ILOL4ARUSH/uofsDnklXI8yZf6n864V+xlzyri5p/+cdk6VLx08DTlCdOb/zoccI58G1n60QQAABYwRanpIkj/Zv7lfPC29tlPe+3GZMnToKufrCOnLHDQ39hh42aZWs+G2fjl0yJgIIIIBAEQECOsvBKAF1uftTwx8I+Jt0VWhufrxM+E9vmfZO16jW3fPaN2TgLVMkIS4vYB3qN+f3jHmYy9qj2iV2jgACCIQnMKxXU2l3RorPizduzZd+//J/Okd4ezD7VZP/eYY0rBvnU+Sin7Lk0alrzC6c6hBAAAEXCBDQXdBEt01B3Tju8SGPBLy7e+Fc12xoIlPfvFne/qyzrdO/7uKPpNeNr0vTRutK3K+6W/vgcSO5IZytnWFnCCCAgDUC9WrGynMjW/kN9sSMtTJ/iTceOdaxbarc193/0XJ3PrJctuw8YA00oyCAAAIIBBQgoLMwjBUo6TnpRQtWN5Gb9dFV8s68y7Vd+q4uZb+208fSrfP7AW8CV7QennNu7HKiMAQQQCAogb9fmS5dL03z2XbrroNyx8M/BvV6t2z0wgNnSt3UKj7TeePTTHnlgwy3TJF5IIAAAkYKENCNbAtFFQpc0+kTGd5nUomXvBeVWrCkvcxf3F6+XtZWtmyvExFivdrb5ILWS6TjeQvlorYLyxxLXdI+5vn+8u68y8rclg0QQAABBMwVmPLgmVKnhm8wfXnOJpk9b6u5RWuo7PpOdeXWLg18Rt62+6D0HuWtLyo00DIkAgggUKoAAZ0FYrxActV9Mui250TdLT3Yf+rM+k+rT5XVG06SDZvTJXNHHdmVnSI5eQly6HDlgmFiKh+WxPhcSU3OkrRa26RRvQxp1nitnNHs1zLPlBetQ501H//SnZK9PynY8tgOAQQQQMBAgZIerdZj+FLX3rm9pDaoO7pPH9PG73/zyDUDFy4lIYCAqwQI6K5qp7sn07rFCrnr5ulBndG2Q0KdsX/29R6ybGVLO3bHPhBAAAEENAsEurzdy48YC/SoOS5z17wIGR4BBDwvQED3/BJwHoC603uPLrPl0vO/iErxn37TQabPuZ47tEdFn50igAAC+gTGDzpdmjZM8NnB5Jnr5ZOFO/Tt1OCRL2tfS/rd1NinwjUbc2XQ+J8NrprSEEAAAWcLENCd3T9PV6/u9q5u3nZlh3mSXjdTq0XG1jT54ItOBTejW785Xeu+GBwBBBBAwH6B2JgK8ua/z/Hb8e0P/SA79hyyvyAD9lireoy8+NBZfpXc+I/v5MChYwZUSAkIIICA+wQI6O7rqSdnpC5/73DOYml31tJSH88WCo56XNqiH9rIF9+dx2XsocCxLQIIIOBAgZanJMmj/Zv7VO7Fu7cXb12gu7kPm7RKVvy2z4FdpmQEEEDAfAECuvk9osIQBeJj86Vl018LbvjWJH2j1K+zVWrX2CUpVfdJfFyeVK50pGDEw0cqSV5+vGTtT5Ltu1Nl87a6si6joaxef5KsWHOq5B2IC3HPbI4AAggg4FSBLhfVkd7XNfQp/4ulu+Xf03536pQsqfsfPU+WDm1q+Iw15e2NMmfBNkvGZxAEEEAAAV8BAjorAgEEEEAAAQQ8L6B+a61+c130nxcfr1Z8IQR63Jr6Tb76bT7/EEAAAQSsFyCgW2/KiAgggAACCCDgMIFH7m4uZzbzfVzm6Clr5NsVWQ6bibXlntsyRUb0buoz6I+r98nIp1dZuyNGQwABBBAoECCgsxAQQAABBBBAwPMCzw5vJfVrx/o43DN2hazfkudpm8b14uWpob6PE928/YDcNWa5p12YPAIIIKBLgICuS5ZxEUAAAQQQQMAxAq/+q40kJVTyqbfH8KWSvf+P+5Z49V9y1UoyfUwbn+nvyz0i//fPpV4lYd4IIICAVgECulZeBkcAAQQQQAABJwi8M6GtVKpU3qfU6wYukcNHjjuhfG01Vq5UXt6e0NZn/CNHjsu1A5do2ycDI4AAAl4WIKB7ufvMHQEEEEAAAQQKBN5/6jwpV84X46p7FsuJE94GUibKpug/ZaJs+IcAAgggYL0AAd16U0ZEAAEEEEAAAYcJENADN4yA7rCFTLkIIOB4AQK641vIBBBAAAEEEEAgUgEucQ8syCXuka4sXo8AAgiEJkBAD82LrRFAAAEEEEDAhQLcJC5wU7lJnAsXO1NCAAGjBQjoRreH4hBAAAEEEEDADgEesxZYmces2bH62AcCCCDwpwABndWAAAIIIIAAAp4XeOTu5nJmsyQfh9FT1si3K7I8bXNuyxQZ0bupj8GPq/fJyKdXedqFySOAAAK6BAjoumQZFwEEEEAAAQQcI9DvpsZyWftaPvW+PGeTzJ631TFz0FHo9Z3qyq1dGvgM/cnCHTJ55nodu2NMBBBAwPMCBHTPLwEArBaYPjBVul9+ktXD/m+8hT9myPlDMrWNz8AIIICAFwW6XFRHel/X0GfqXyzdLf+e9rsXOf4353/0PFk6tKnhYzDl7Y0yZ8E2rS63dkqUyf2bSFxcrJb97Ny9V/5v7CaZtzxfy/gMigACCIQrQEAPV47XIVCCAAGdpYEAAgg4T6DlKUnyaP/mPoVv3XVQ7nj4R+dNxsKKX3jgTKmbWsVnxGGTVsmK3/ZZuBf/oQjoWnkZHAEEDBYgoBvcHEpzpgAB3Zl9o2oEEPC2QGxMBXnz3+f4Idz+0A+yY88hT+LUqh4jLz50lt/cb/zHd3Lg0DGtJgR0rbwMjgACBgsQ0A1uDqU5U4CA7sy+UTUCCCAwftDp0rRhgg+E+q21+s21F/+p3+Sr3+YX/bdmY64MGv+zdg4CunZidoAAAoYKENANbYyVZbU7NVbuuDRB4mLKWTmsJ8aa++NBmTp3f0hzJaCHxMXGCIQt0LRejAy4OlGqJ5YPe4xgXvjTxsMyZtbeYDa1ZZvxt6VI/dSKWve1J+e4THwvR9Zs0X/muH5qJbm9U7xcf0E1aVg3SeLjYqVcuT//Xh06dFiy9ubKwl+y5dmP8+Tzn/K0zf3vV6ZL10vTfMb/fmW2jHputbZ9mjzwg3c2k7NbJPuU+ManmfLKBxnayyagaydmBwggYKgAAd3QxlhZlu4/clbWatpYMz5eKz0m7AqpLAJ6SFxsjEDYAp1axcmrQxtIzRrVwh4jmBeadmPGtVObSJMGNYMpPext7LiBlgrmj/VMlqva15bEhPigaj1+/Lj8um6HDHlpl3y01Pqg3rxxooy77zS/WnoMXyrZ+48EVaNbNkquWkmmj2njN50hT/wiq9bnaJ+m7mMXO9a4diR2gAACrhQgoLuyrb6T0v1Hzs2EBHQ3d5e5OV2AgK6vg7rDyy0dq8ojPWtLvTrVw5rE4cOHZdb8DLn7uT2Sk388rDFKetGUB8+UOjV8b4rmxcetBXq82rbdB6X3KHtumqf72EX3Grd0UTIYAgh4SoCA7oF26/4j52ZCArqbu8vcnC5AQNfXQZ3hZUyPZBlwQ4OIH5914sQJ+e7nTLn9qZ2ycpN1l+IHuszdi3dzD3T3drsub1crW/exi841ru+dycgIIOAFAQK6B7qs+4+cmwkJ6G7uLnNzugABXV8HdYWXsbekyL03NJKYmMqWFK9C+tJfMuXWJ60L6fVqxspzI1v51ffEjLUyf0loP3myZJJRGKRj21S5r/tJfnu+85HlsmXnAVsq0n3somuN24LDThBAwNUCBHRXt/ePyen+I+dmQgK6m7vL3JwuQEDX10Ed4aX/lUky5vaGkpgQZ2nhKqR//UOGXHj/VsvGHdarqbQ7I8VnvI1b86Xfv36ybB8mDzT5n2dIw7q+fVr0U5Y8OnWNbWXrPnbRscZtw2FHCCDgagECuqvbS0CPtL0E9EgFeT0C+gQI6PpsrQ4vLRrEyIej0qVBWg0tRR8+fETGz1onw17JtmT8lqckyaP9m/uN9cJbG+W9L7dZsg9TB7n6wjpyxw0N/cobNmmVrPhtn21lE9Bto2ZHCCBgmAAB3bCG6ChH9x85HTWbMiYB3ZROUAcC/gIEdH2rwuqA/vrgmtK1UyMpX17fI/Eyt2dJ10czZNGv1lyCHegRY/kHj0mfR3507R3d1Z3bnx95psRVqeCzuKLxqDndxy5Wr3F970ZGRgABrwkQ0D3Qcd1/5NxMSEB3c3eZm9MFCOj6OmhleGl3aqy8NTxd6tTyvWTc6urVI9heen+d9J6825KhS3rk2hdLd8u/p/1uyT5MG+QfPU+WDm38r3Kw69FqRT10H7tYucZN6yP1IICAswUI6M7uX1DV6/4jF1QRDt2IgO7QxlG2JwQI6PrabGV4eaJXivS7volUrFhRX8H/HXnV2u1y7qBNlj16rd9NjeWy9rX86p48c718snCH9vnYuQM1TzXf4v/UPNV87f6n+9jFyjVutw37QwABdwsQ0N3d34LZ6f4j52ZCArqbu8vcnC5AQNfXQSvDyzfj0qT9men6ii0y8v6cPOkzcYPM/CrHkv0lxleU50a0kqSESn7jDRr/s6zZmGvJfqI9SNOGCTJ+0Ol+ZezLPSJ3jl4uOXlHbS9R97GLlWvcdhx2iAACrhYgoLu6vX9MTvcfOTcTEtDd3F3m5nQBArq+DloVXprWi5G5Y9Ilva6em8MVFzhy9KhMmLlW7p9mzc3i1PgXnZ0qg/7u/8ixrTsPytAnf3H879HV787H3nua1K1ZxW9BjX9lrSz4PjqPltN97GLVGtf3LmRkBBDwqgAB3QOd1/1Hzs2EBHQ3d5e5OV2AgK6vg1aFl0tbx8uMIQ2kRkqSvmKLjRzO53ZZxZV0qfvKdTky8ulVcvjI8bKGMPL/V65UXh65u7m0aJLoV1+0Lm0vLET3sYtVa9zIxlIUAgg4WoCA7uj2BVe87j9ywVXhzK3COdCbPjBVul/uf7bFKoGFP2bI+UMyrRqOcRBwrAABXV/rrAov0fj7E87ndjCS6hJwdSl48X/L1+yTh59f7biQrsL5A32aSaum/l+eqEv31SX80fyne+1YtcajacS+EUDAnQIEdHf21WdWuv/IuZkwnAM9ArqbVwRzM0mAgK6vG1aFl2j8/QnnczsYyXo1Y2XsfS0C/h5dnUl/7KU1jrncXV3Wfv9tTQOeOVe/Ox/6xErZstOax9UFYxtoG91rx6o1Hu78eB0CCCBQkgAB3QNrQ/cfOTcThnOgR0B384pgbiYJEND1dcOq8OKWS9wLpVuekiRj+jWXcuX87dVv0sdP/934G8epqwAG9Tg54G/OT5wQGT55laz4bZ++xRXkyLqPXaxa40FOh80QQACBoAUI6EFTOXdD3X/knCtTduUE9LKN2AKBaAkQ0PXJWxVe2jaNlbdHpktdzc9AL5RQN4mb+MY6GfJyljacc1umyIjeTUsc3+RHsJX0KLXCyYyeska+XaHPLpSm6D52sWqNhzIntkUAAQSCESCgB6Pk8G10/5FzOE+p5RPQ3dxd5uZ0AQK6vg5aGV6WTUyXs1qk6Su2yMh5+QdkwNPrZerc/Vr3p0L68F5NA55JVzv+YuluefGdjcZc8q4uab/92obSoU3gu+mrM+djppoTzpWh7mMXK9e41sXG4Agg4DkBAroHWq77j5ybCQnobu4uc3O6AAFdXwetDC9T+tWQ265qIuXLl9dX8H9Hzti6Wy4ZniFrthzSvi91ufvQW08O+Jt0tfP8g8dkxgeb5b0vt2mvpbQdXH1hHel+ZX2Jq1Ih4GbqN+djX/7diMvaixao+9jFyjUe1QazcwQQcJ0AAd11LfWfkO4/cm4mJKC7ubvMzekCBHR9HbQyvNzQPkGmDmwkSVX974Bu5QxOnDgh736xQa57dIeVw5Y6lrpx3H09Tgp4d/fCF27cmi/vfL5V5i+x93niHdumyrV/rSsN68aVOAd1t/Ynpq+N+g3hAhWo+9jFyjVu24JjRwgg4AkBAroH2qz7j5ybCQnobu4uc3O6AAFdXwetDi9zH64jnc5tIOUC3V3Nomlk7c2RPhM3ylsLcy0aMfhhSnpOetERtu46KJ8u2iGff7dL26Xv6lL2v56TKpe2qyV1U6uUOoFoP+e8LF3dxy5Wr/Gy5sP/RwABBIIVIKAHK+Xg7XT/kXMwTZmlE9DLJGIDBKImQEDXR291eFFn0Z8f0FBSqiVqKfr48ePy+tz10n28vWepi07morNTpdd1DUq85L3ott+vzJYlP2fLj6v3yo49kV2OX6t6jJzZrJq0PT1Zzm6RXKavuqR96tubZMH30bMqs0h+gx4MEdsggIBLBQjoLm1s0WkR0MNvMgE9fDteiYBuAQK6PmGrA7qq9PHbUuSe6xtL5cqVLC98zfodcv2jmbJyU2RhN9LCEuMrSs+r0kXdLT3Yf+rM+m+bcmVDZp5k7jwoO7MOSfb+w5J34JgcOXq8YJhKFctLfGwFSa5aWWqmxEhazSrSKC1eTmmQUOaZ8qJ1qLPm097PkJy8o8GWF7XtdB+76FjjUcNixwgg4CoBArqr2hn9yXwzLk3an5mutZD8/APSb9I6eXlejtb9hDs4z0EPV47XIRCaAAE9NK9QttYVXmYNqSk3dGxk6Q3jduzeK72eyJAPvssLZYpat23eOFFuvCQtqDPaWgv57+DqjP2bczNl1Xoz/3DudJ0AACAASURBVG4GMiCg27Ey2AcCCJgoQEA3sSsOromALkJAd/ACpnRHCRDQ9bVLV0BPjCsvr/+jplzevoElIX3bjiy546ktRoXzol1Rd3q/8i+1pd0ZKfqaVcrIi37Kkg++2m7cHdqDwSCgB6PENggg4EYBArobuxrFORHQCehRXH7s2mMCBHR9DdcV0Asrfv7uGtLz8gYSE1M5rEmoO7avWLNN+j6zUxb9eiCsMex8kbrbu7p52wWtq0udGqXfvC3SurbtPihfL9tTcDO6LTvNtylpvgT0SFcCr0cAAacKENCd2jlD6yagE9ANXZqU5UIBArq+puoO6Kryzm3iZdxtqdL8pNoh3d09JzdPXp+3Vf7xcpbk5P/xG20n/VOXv7dpnixnNE0q9fFsocxJPS7tpzX7ZOmqbEddxl7aHAnooawAtkUAATcJENDd1E0D5kJAJ6AbsAwpwSMCBHR9jbYjoBdWr+7wfu/VSXJms1SJi60SMKwfO3ZMMrZmyXuLs2T8uzmyedcRfZO3ceTYmApycoMEaZQWJ/VrxUqt6lWkRrXKUjWhosTFVJCKFcsXVHP06HHJP3RM9uceld17D8uOPQdl844DsiEzX37flCsHDh2zsWp7dkVAt8eZvSCAgHkCBHTzeuLoigjoBHRHL2CKd5QAAV1fu+wM6EVn0aJBjLRuUlkq/JFLC/7tyTkh7y2x/9nm+nQZORgBAnowSmyDAAJuFCCgu7GrUZwTAZ2AHsXlx649JkBA19fwaAV0fTNiZKcJENCd1jHqRQABqwQI6FZJMk6BAAGdgM5bAQG7BAjo+qQJ6PpsGTk4AQJ6cE5shQAC7hMgoLuvp1GdEQGdgB7VBcjOPSVAQNfXbgK6PltGDk6AgB6cE1shgID7BAjo7utpVGdEQCegR3UBsnNPCRDQ9bWbgK7PlpGDEyCgB+fEVggg4D4BArr7ehrVGRHQCehRXYDs3FMCBHR97Sag67Nl5OAECOjBObEVAgi4T4CA7r6eRnVGBHQCelQXIDv3lAABXV+7Cej6bBk5OAECenBObIUAAu4TIKC7r6dRnREBnYAe1QXIzj0lQEDX124Cuj5bRg5OgIAenBNbIYCA+wQI6O7raVRnREAnoEd1AbJzTwkQ0PW1m4Cuz5aRgxMgoAfnxFYIIOA+AQK6+3oa1RkR0AnoUV2A7NxTAgR0fe0moOuzZeTgBAjowTmxFQIIuE+AgO6+nkZ1RgR0AnpUFyA795QAAV1fuwno+mwZOTgBAnpwTmyFAALuEyCgu6+nUZ0RAZ2AHtUFyM49JUBA19duAro+W0YOToCAHpwTWyGAgPsECOju62lUZ0RAd0ZAb9s0VprXrxhwrazafFSWrDkQ1XXkhJ3XT60kfzmtilSuUHK1WOrtJAFdny8BXZ9t0ZET48rL5a3jJD6mXMAd5h06IR8vy5ec/OP2FGTQXpwQ0Ev7O7An54S8tyTXIFEzSynrPaCq3rz7mMxbnm/mBFxUVUnr+fAxka9+OSibdx1x0WzNngoB3ez+OK46ArqZAf2uzlXlmnPj5YyTq0mN5ESpUKGUVCkiJ06ckEOHDsvu7FxZvSlHvl55QGYvPiArNx1y3JqMtGB18ND1/AS5+pxYObVBvNSukSBxsVXKNCy6X2WZl39Qtu3Ok18z8uWTHw7KG9/kevKgO9J+FH09Ad1KTd+xCOjW26ovRm9oHysdTo+XxmlVJTEhVipVqhTUjo4cOSJ5+YckY/t++W51nsz6Jt/1gcXEgP7XM+Ll1o5xcl7zqpJWO0mqxMSU2b/Cz//1mftl6e8HZPYi9/euJJSuFyTIVWfHylknJ0jd1ASJj4sJ+j2gxix8H+zYkye/b8mTBT8flDcX5hMcy1yFgTdQn0l9LouXv5yeFNR6Vmt5b06+/PT7Xvnw+3x5eX4OxzFh2pf1MgJ6WUL8/5AECOjmBHR1IDGwS6JceFYtSYiPC6mPgTY+fvy47N2XK9+s2C1T5ubKB9/lRTymqQO0aBAj912dKH89s5qk100JKYwHO6djx45J5o5s+e7XffLsx3ny+U/u9QzWJNTtCOihigW/vdUBPZgrToKvzn9LU880X3lOvPS+JEHOPyNVkpMSpFy5wGfKQ527+hI1Ny9fflyzW16cmyOvfJ5T5hClXTlV5ouD2MDqM8amBHS1dgddkyhdL0yV2jWTI+6h6l3+gYOyekOWvDJ/n6tDjrIbcFWidG6bJI3rVZfKlYP7QiqI5fa/TdSxya6s/fLDmmx56bNceWuheVctqL9V9WuUfmIklDkX3zaUq/UK1/ONaj2nVpPy5cuHvevDh4/Imo275NUF++SZj/YT1sOW9H8hAd1CTIYSIaBHP6CrYD7qb9Wkbcu6Uqli4MvYI12r6gBj+85seePLXTL+3RzXfHutrjS4s3OynNqkpja7QPZu9Yx0nZX1egJ6WULh/3+rA7opYSt8keBfqa66ufeqqnJH55pSr05KxIGurD2rz4+s7ByZMW9bqZ/H0wemSvfLTypruLD//7pNO+WkXuvCfn3xF0Z7zagg80C3JOnWsa4kJsRbNq/iA6kvWr78YYdMmJPjmi9qb2ifIPdenSRtWtQK6ioDq3DVeyF7X658tHiHPDZ7vzFX/ek+Np7x8VrpMWFXqYxqPT/WM1mual9by3rOyc2T9xdul/unZbvmmNCqdRnOOAT0cNR4TYkCuj+E1I7z8w9Iv0nr5OV5ZZ8xiEardB8ELfwxQ84fkuk3NfXh+1TvFOncvp5UrlzZtqmrfnzy7VZ54LV9xvwxDGXy6mB68LVJ0vuKWlKrRjXtB9Nl1eZ0z7LmZ+X/J6Bbqek7FgE9PNsR3arJ3V1qR+2zRF3l9Nq8rXL/K9l+Z7N0/21yU0BXfbzvhnqSUi0xvIUQxqvUVVW//L5DRs/cY+RZ4GCmpEJ5v6trSJP01Kj/LT18+LAsXL5NRr+xL+pffOg+Ni4roA+9oZoM6WbPes7amyNPvLVFRs/aG8ySYZsSBAjoLA1LBXR/CBHQRQIF9D6XV5URN9eWenWqW9rPUAZTZwFmzsuUh2ftc8y3p8pt+E3KTf9ZrlAsC9f5R4u3ysAX+Ta6JDu7AnqovXPD9gT00LrYuU28jLstVZqfVDvqwUSdRdyyLUvGzNwuz3+8/38TIaCX/SVUu1Nj5fHbqsu5LdMiuvQ3tNXju7UK6kt+3iojZ2RHPVgGOw+T1n/xmlVQ/2b5tgLPRb9G5wa4uo+NSwro6gTEq4NSpXP7Blp+qlfS+tiweZdc/sBmWbPFe/ctCvY9U9Z2BPSyhPj/IQno/hAioPsH9OfvriE9L28gMTH2nTUvbVHsydovD8/YIk+9vy+ktWPnxuogbOwtKXLeGWm2/tEKZ47q2+hxs7bI2Lf4Nrq4HwE9nBUV3GsI6ME5qa2euau69LysvsTFxQb/Ihu2VMFk1vwMufu5PQVn0wnopQf0WzpWlcd6pRVc/WDCv+L9M6Gm4jVE68q9cCzUSYTpn26Rvs/uCeflEb1G97FxoICujnOevbumnH5KHVu/NDx69KhMnr1O7puaFZGZ119MQPf6CrB4/ro/hAjofwZ09Ydx2oBUubBN/ah901/S8jly9Ki8/9UmueXJ3cbdNERd6nX/TfWlWlKCxatf33DqjMpXy7ZIz4m7HHN1gj6NP0cmoOtTJqCXbatuJvniPTXlnNPTbD0ALruyP7dQZ9N//m2b3PX0Trnr8gR+g14Er+gaH3dritx9TbpxX7Ko/v26bof0f26ncWfT1Rcaj/SM7pV7obwX1LbKc8WabdL3mZ22nk3XfWxcPKCrm1NO7ltXGqTVCJUo4u05ex4xYcEABHRrHBnlvwK6P4QI6H8E9D5P75ZXB9eWljZ/MxrKQld/CJf+kim3PrnTiN+mR+tSr1DMSttWeWZs3SMDX9gmby8y7y61Vs0zlHEI6KFohbYtAb10L3Uzzin31JbG6TVDg43S1uqmnsvW7JUrLmikrQKn/gb973+Nl5submjrjUFDbcKuPftkyJQt8p/5f/5kIdQxrNzetCv3Qp2b3Vf66T42LhrQVTifel96VK4E4ex5qCux5O0J6NZZMpJwF3e1CHRfRvj9z1skKaGSnNKolvFrzpSQrs50mf6FRrDNVJe8j3pls9E/IQh2LpFuR0CPVLDk1xPQS7ZRB8Av3FNP6tRK0dcAB47stICuQu+y1VlyyXkNjLsKLVD7TQjp6ovud4bVkovOTneEWWlvI3VD1qffzZAhL+u/FNuugB7NcK6sOXtu3Qc3Ad06S0YioBesAd0B3WkLTYX0hT9uls6jtkXlcvdoXuqlq1fqwGLiW5tk+PRsXbtwxLgEdH1tIqAHto32AbC+jkc+stMCeuQztn+EHbv3Sq8nMuSD7/Js37mbvuguxFM/x5v52Ub5exmPKIsU246APuub/Kh+cajOnj//7nrp97z9v/GPtD8mvp6AbmJXHFyT7g8hReP1x6w5cXkcP35cXp+7XrqPL/05nVbP7bp2CfL03fWkds1kq4eO+niEdBECur5lSED3t+XMeenrjYCu7/1YdOTV67fLNY9stfUO2eqGYy8OqC1NG9Uy9n4L4erbEdJ1HxvPnLtOWp0UL80a1w6XIeLXbcrcLVc8mGHETxojnowBAxDQDWiCm0rQ/SFEQHfuasnJzZfhL26USR/Yc3d3L5zpstvUtNVHQNfXEQK6r606ezh7WJo0bWz+T4v0rQoCerRsi+5XfeH91vwN0m3cTlvK8cLaP3z4iDw1e70MfknP5e66j41/27BDTmqQGrWfHXD23Pq3IgHdelNPj6j7Q4iA7uzl9fNvW6X94M3aL3X3QjgvXAnRvOQx2quRgK6vAwT0P23V724/erCOtD+zvuvOHlq5gjiDbqVm6WPtz8mTvpM2yKsLcrTu1AvhvBBQ5xfedhwba10IZQzO2XPr9Qno1pt6ekQ7PoS4xN25S8yOO3x66YCicCVE45JHE1YhAV1fFwjof9pO7lNd+lzTWCpWrKgP3AUjE9DtbaK6Yew5Azdr26kXv5javitbeozLkHnL8y11tePY2NKCQxhMXdHx0vvrpPfk3SG8ik3LEiCglyXE/w9JwI4PIQJ6SC0xbmOdd/n04gGFanC0fuMf7cVFQNfXAQL6H7b/d1GiPNO/kVRNjNeH7ZKRCej2NvLAgYPyz6nr5cn39PxsbNaQmnJDx0ZRu2zaXs0/9qZuavv1Dxly4f1bLd29HcfGlhYcwmCZ27Ok66MZtj5XPoTyHLspAd2xrTOzcDs+hAjoZvY+2KrUb70enbFORr1u/R3Ip/SrIbdd1cSWA4pjx47J7uwc+T1jv2zefUSWrz8su/Ydk4Qq5eWcUypL7eSK0qxBotSpWU0qVKgQLE/Y29l1yWPYBWp4IQFdA+p/hySgi6gv/BY+Xl9OP6WuPmgXjUxAt7+Z85dslE4jtlm+4wduqibDujeRmJjKlo9dfED1BfPefbmyPnO/bNh+SFZmHJGMXUelUsVycs7JlaVu9YrSLD1B0mpVk8qVK2mv59ChwwXHKA/P3GvZvuw4Nras2BAG4ux5CFghbkpADxGMzUsXsONDiIDu/FWo49K8/lcmyZjbG0piQpxWIHUg8cGi7fLY7P1B3a20fmolGXRNovS4pK6kVEvUWtuylVvkomGZ2n/jr3USIQxOQA8BK8RNCegiXNoe2qIhoIfmZcXWWdn7pee/N1r62DW77uGijuUWLNsuE+bkyOc/lf3YOPWF2b1XVZU+V9SUtNopWu8HYfVvqu04NrZiPYU6BmfPQxULfnsCevBWbBmEgB0fQgT0IBph+CZWH1Q0rRcj746sq/URI+pRLB9+nSH3TMmSzbuOhCysgvpTvVPkigvSpZKm37IePHhIRry0Tsa/o+eSx5AnrfkFBHR9wF4P6OqxUm8MSy8IAvwLToCAHpyTlVvpuK/Ll4/VlQvOStcWgNVZ129XZMrgl/aEdVm0Cur/vjVFul9ST+LiYq3k/N9YVt+V3I5jYy0QpQzK2XO94gR0vb6eG92ODyECenDLqvhlY4WvSogtb+vlYoGqVWF3wsy1cv80ay5z131pe25evjz2+iYZMyvyS96Gd6sm99/cQBLi9Zzp99JZdAJ6cJ8F4Wzl9YD++uCa0rWTt35/G846KfoatwZ09bvk/AMHZcv2/bI6I08OHz1RMO0K5UVOSouVRmlJBZ/n5cqVi5QwrNcv/DFDzh+SGdZri79I96Xt6idur3y80ZIbit3SsaqM611PUqsnWTL34oNYeRbdjmNjLQilDLptR5bcMIbfnutyJ6DrkvXouHZ8CBHQS19cymfukm0Fl2AvWXOgxI3tvPQ6UBFzvlgv14zZEfE7RXdI0/F81MdvS5F7rm+s5fd0um8cFHHDLBxAd+8tLNVxQ3k5oKuz528NT5c6tTh7HsrCdVtAV/cZ+eX3HTLhnSx55fPSH2d2V+eqck+X6tK0US3bg3rG1t1yyfAMWbPlUCjt8ttWXYn23gNpckqjWhGNU9KLdTy/XedP26y8OsGOY2MtTSthUNXLaR+tk9ue5M7tutwJ6LpkPTquHR9CBPTAi0sdTCz+KVOG/icrpMvGVFB/rm91ufS8dFtuZlZY/crft8lpfTdG/E55e1gtuaZDIy0HRToOKAon/Ob9NeW6i/ScodN146CIm2XxAAR0i0GLDOflgP7SvTWkZ2d7bjZZWpjZlbVffl67V5ZvOCSrMnx/VpOaVEHanlJZzmiSKPXrJGv5si/U1eWWgK7OmG/ZliVjZm6X5z/eHxLDw/+XLANuqC+JCfbd9V/dILTPxA0y86vInon+RK8U6Xd9Ey2PE1SmC3/cLJ1HbbP8Hinjb0uR/jc20fLTsVVrt8u5gzZFXLMdx8bBLFR1TKOe974zK0+OH/d9RUzlCpKaEi+xVWLKvNEuZ8+D0Y5sGwJ6ZH68upiAHR9CBHT/ZZeTmydjZ2ZEdAm2+uPc91o9Z3UDvVGs+NZf3cxm2j8aSkpyVS3vRSsvcSteoM7fuHrljycBXcuyLxjUqwFdnUX8+OH60qh+qj7cUkYO9gqookMUXg3VvVMdSUlO1PJlZTAYbgjo6ovujxZukv8bvyvsUHZduwR5pn99qVWjWjBsEW+j7j0ybOo6eWJO+Pce0b3us/bmSJ+JG+WthbkRz7f4ADqftqCOrfpN2lDmFRRlTcqOY+OSalBfjqjH2767MFsmvp9T5j10lGfX8xPk+nZxct5pqZJUNd7nM4Wz52V125r/T0C3xpFR/itgx4cQAd13ue3as0+GTNki/5kf2jf9gRatnc89tSIA6DzTZccfIV3163yUnUkfdgR0fd2w4v1ZtLpbOyXK5P5NtN3Uyap67706Sf7Vq7HExlbRhxtgZBUMP12cIXc+s6fMA+iSCiu8edbfLk7Tdo+L0lCcHtCt/H20zkuvi/fAinu6PHhzcsFj1XQ9xkz3VV266rfqOMCOY+NA7031xcgTb22R0RHcP0d9Jva7uoY0SU8tCOpeOQFg6x+AADsjoEe7Ay7bvx0fQgT0PxeNulRp+IsbZdIH4X9zXnQJqgO8jx6sI+3PrK/9LEykl+Xp/sY/0vqCeWvf9JdEeX5AI6maaP3lkHMXb5RLH7D++bjBzMuubQjo+qStCryFFToloL87vJZ06dBYH2yAkdVB9KhXNstT71vzOa7O4D7Rp46k161h6zycHNB1/JxJ571GijbWirtpfzehvpx9ej0t60U9V/yR6esiusKvrMLaNo2Vt0emS10N942w4ud4dhwbFzVSZ82/+zlTbn9qZ1CPgy3LV/3/cbemyJ1X15MPF22Xmx/fGcxL2CYCAQJ6BHi81F/Ajg8hAvof7jpuXqbGVZeNvzSwgbY7oxaumkj7eF+XJHm0VxOpUiVGy1tRXRJ2Rr/1YV/mGGxRvzzTUFqcXCfYzYPezoqfEAS9syhtSEDXB+/FgK6+9Js7Jt3WYLtj917pO2mzvL3I2kt/WzSIkVcH15aWp9TR/mVr4Sp0akDX9fto9YX3J6PqSrtW9fW9Uf878oyP10qPCbvC2s815ybIi4MaSkq1xLBeX9aLdmftk+7jNsmny8p+1nlZY5X2/z99uI5ccl7DSIYI+Fr1Bdrt4zfKu9+G/x6149i4sHj1hc2C7zPk2kd3WH78oj5X9ucfD/sqH8ub4+IBCegubm40pmbHh1CkwU63y/SBqdL98pO07kYdULz/1QbpMjryu6AHKlTXpddF9xVpH3X9MS6scfHyzdJu8BatfVSD6zpjpx4Nd/dT6yP+7Zx2gAh2QECPAK+Ml3oxoPe6pKpMvLuxxGt6tnJxchXOez2RIR98pye4qIPp2cPSpGljPXflLj4fpwZ0nfca+ftf1U87Gmm/aVwkAV33Y0rt+rJ7Up/qcte1TSy/2e2RI0dk3GvrZMSM8B8La8exceH78efftkr7wZstD+f6/towciABAjrrwlIBOz6EIg12lk44wGB2BHSrD56LT0P3zdfU/iLpox1nurL35cjOPfm6l4skJVaW2qnJlu9H/S5x4hvrZMjLWZaPbcqAdgV0dYC5dE3k93iwyq3DmTW0X+Fi9WeMEy5x1x1UivZffYGmfp5k1WXtJa0t9Vk+9b50W25Y5sSAbsXvt8t6X+u8fLxw35EE9GUT0+WsFmllTSPs/5+Xf6DgGfK6/8VVqShptZPLvAN5OHXMnLsuosu67Tg2VvNSP83rO2mDvLogsjv6h2PEa6wVIKBb6+n50ez4EIok2NnRIN0BXZ09f/eLDXLdo3rOnhca6f6jHUkf7T7TZce60bGPSA8qdNRk5Zh2BfSFP2bI+UMyrSw9orHWTm0iTRrUjGiMsl7sxYD+5WNp8pfW6WXRRPz/dV8BVbzAR/+eLIO66bsBWOH+nBjQ1Zdvlz+wOeJniJe2KHSd2S26z3ADul2foRG/aaI8QKRX1NlxbKyIdN+ML8pt8NTuCeiearf+ydrxIRRJsNMvIKI7oKtvowc8vV6mztX7jbTus0mR9NGOAx471orufUR6UKG7vkjHt+vgkoAeaadETD+Drn4v/NPkxrY8Xs3uuyCruS14NE1at9BzEzCnBnT1Rclrn66T7uPD++12sO8KnTcDLawh3ICu+14uwRqZvl2kl+nbcWx84MBB+efU9fLke9bcbNL0nri9PgK62zts8/zs+BCKJNjZwaE7oNt18y/df7gj6aPu35/bsU7s2IfVZ7TsqDmUfRDQQ9EKbVuvnUG/tHW8zBjSQGqkJIUGFeLWVj22KcTdiq7HUBWtw+rPG91f6ljx/PBg+mDHT7LCDei6v4gPxscJ20T6eWjHsfGqtdvl3EGb+O25ExZUEDUS0INAYpPgBez4EIok2AU/k/C31B3Qf1iZKa0HZIRfYJCv1H1wFEkfdd35PEgax2wW6UGF6RMloOvrkNVrR/fnSaT16q6vsFN2PL4x0KrQ/VhKtU+nBXQr7s4d7DtQ989Swg3ofNkdXAcjOV5Re9B9bHz06FGZPHud3DfVvfecCa5T7tmKgO6eXhoxE90fQmqSkX5Q6obSHdDtutxW9xmlcPtox9kI3WvErvHtPAC1a05F90NA16ceaeAtXpnuABxpvaO7J8uQvzWRSpUq6UMVESueqRxugbqeGFFYj9MCeqRrJpQ+LHq8npyn8XFr4QZ03feaCcXI5G0jvdpC97Gx2//Wm7w2dNVGQNcl69FxdX8IEdBF7ArousNPuAFdd11ueuuGa+wUA7vWgl3vuWDddZ+NU3VYHV5MD+jjbk2RAV2bSKWKFYNtQ1jbzflivVwzRu8NPksqTPeXEAT0kpeE7mOjcAO6HZ8lYb1RDHtRpHf7193/3zbskKZ3rDdMjXIiESCgR6LHa/0EdH8IEdAJ6LoP9N30tiagW9NNAnrkjrrft5F+oaD7yiclGO1HH6pncj99T2NJiI+LvKEBRiCgOyug2/UFp5bFZvOgpgf0uYs3yqUPbLNZhd3pFCCg69T14NgEdP13cbcrLOj+4x1ueNR9oO+mt22kBxWmW+heo4Xzt+s9F6y3HWe9Ig28xeei+30bab12BPRIL5MNdn2UtJ3u9wsBnYAe6Ro1+fXhXqWg5qT72DiS2kw293JtBHQvd1/D3HV/CHEGnTPoug/0NbwtojYkAd0aegJ65I6637dOCOjhfikZuf4fIxDQfSUjXTOh9EX3sVE4AU33egjFxwnbhmNcOC8T++8Ecy/XSED3cvc1zF33hxABnYCu+0Bfw9siakMS0K2hJ6BH7qj7fRtp2LLjDDoBPbR1ZPqaCWU2uo+NwgmPBPRQOigSjjEBPTRjtv5TgIDOarBUQPcfIQI6AV33QZulb4goD0ZAt6YBBPTIHXW/bwnoZfdIdyDjEveSe6D72Cic8Kh7PZS9Ip21RTjGBHRn9dikagnoJnXDBbXo/iNEQCeg6z7Qd8Hb8H9TOHLkiIx7bZ2MmJHtpmn9by52HWAS0CNfPrrft04I6PwGPbR1ZPqaCWU2uo+NwgmPdn1+huJk6rYnTpyQVz5aJ7dM3BVWiSb2P6yJ8CLbBAjotlF7Y0e6P4QI6AR03XciVmvs0KHDsnn7Xjl27ISj37j5h47KQ69myXtLch09j5KKt+sAk4Ae+fIxPWzZcYl7tO/irrsHnEF31hn0C0+Pk1nDGkitGtUif4OXMMLRo0dl87ZsOXzkuLZ92DHwkWPHZcrH2fLU+/vC2p3uY+NwvqAJayK8yDYBArpt1N7Yke4PIQI6Ad2OUBbp2ThvvNujP0s71oKaJQE98l7rDoeRvmcf65ksA286ydXPQdf9rHcCurMCuqpW9xMhon3fhcg/uawZQfexMQHdmj6ZNAoB3aRuuKAW3R9CBHT7woLu8BPuH+6m9WJk7ph0Sa9bQ9s7JtKDfW2FMbCPgO41WrgzAnrkC8/0gD66e7IM+VsTqVSpUuSTLWWEsov8OwAAIABJREFUlb9vk9P6btS6j5IG//ThOnLJeQ217ZuA7ryAvmxiupzVIk3bmgj377y2gqI0sO5jYwJ6lBqrcbcEdI24Xhxa94cQAZ2ArtaA7oOK3Lx8ufup9fLK5zlefBs7Zs4EdH2tsvpLKtMDuu76CjuVk5sn/SZtsP2zpW3TWHl7ZLrUrZWibdEQ0J0X0N8dXku6dGisbU24/T4owcLpPjYmoAfbCedsR0B3Tq8cUanuDyECOgFdrQEOKhzxcaC9SAK6PmKvBXS71tLx48dl2kfr5LYnd+trXoCRH7w5WYZ1byKVK+u7QoCA7ryAPqlPdbnr2iZSoUIFLesx0puraSkqCoP+P3tnHudj1f7xj2VmzL6YfcyuFC2KEtNTiVRKREWlRKSERNEPKetjiYSUiERFIUtpI9UTUpR6opSxjBmzmjH7Zvm9jpon35nv+G73ub/38vn+0+vVnPs61/W+zn27P/c55zqy340p0N2QVMldUqBLBmw287IfQhToFOhiDMjeSyn62PDVIfSYmm22W1hX8aolqrjE3fVhIXuGWokPCrL349ZQzMzOxz1T07Djt3LXwdphQWwL2jghBhcnRtjR2vkmFOj6E+iP3RaAuUOS4e3dxPnE27jyx30ZaDMiTZp9PRiW/W5Mga6HUeCYjxTojvFiaxsEZD+EKNAp0MUY6HODPxaNSESAv6+0ezLteB66jEvDgfRKaX3QsGsEKNBd43ehq5UQvOfb14NA/3p6DG5oEycP6t+WxSz6um2Hce/0HOl9iQ4WDG6KwT2S0LhxY6n9UaDrT6CrsfUh/2QxHp19BOu/M+ZpIvbcVLLfjSnQ7cmCvtpQoOsrX5r3VvZDiAKdAl2MAX+fhvhxXiKax4dLuyfEkUhzVh3Ec8vVPUM8NswDcx4NRlrOKby46iSKy/R9PI20BAGgQJdH14wCXfZy3/OzJepcjHvziNPHNtmbeTFD+tLgBPj7yfuYWeMLBbr+BLrwWPZ7m/gg9f6Ww7h/ljofpGqyIN4TXuofAm+vBhi34iSO5Vbbe9so3k42Ywp0xVPmdoMU6G5PgbEckP0QokCnQK+5Y9aNjUCPmxLRoEEDaTfR0Yw83PFCGvYdVWcWXYjzVaMj0P7KZufiEjMPb31ynEK9ngxToEsb+jCjQFdjZc75GcvOO4mBL6fho+9LpSTyzmt9sWBINOJj5J14cb7jFOj6FOgvDwzB0F7JUldYiH/LBs89gjXb1ZlFF+J86fBQ9OyYiIYNG0J8ENv4bea5D+7uEOqy340p0KU8Qt1qlALdrfiN17nshxAFOgV6zV3z1F2B+PfAJKl750SBm+0/HUPXiZnSZ7JbxXth2VPhaHtZjMVHB+FDfkExln+WSaFe65FJgS7v3xAzCnQ1VubUzpgQ6UPmH8O6HcoKl5uv9MXi4ZFIipO3yqh2LBTo+hTo4kPO8mcSEBIcIO+BAuDAoWz0mpYh/YO3uI/feyYct6fEnxPn5//EKQqbtmepLtRlvxtToEsdum4xToHuFuzG7VT2Q4gCnQK95u4R/wh/NzseLZtHSr2havaLDpiXJ02ki5fpRcMikRwXVu+KAAr1ummmQJc39M0o0AVNNVbm1M6aEA0zVqVh6uqTiiR08O0BmPhwDCJCgxSxZ68RCnR9CnTh9ZYpUejULsHeVDvVTvwbtvPndPSZmS1tFlt86H5zeDiuvdzyQ7e1e05NoS773ZgC3akhqemLKNA1nR79OSf7IUSBToF+/l2hxtI80Z94sfjh1ww8vThP8crLw7sFYkLfZmgaYt/sBYX6PyOAAl3evxFmFegDuwRg7pNJ8PXxlgfXiuXTp09j588ZGPNWvtPPGCFOpj0UhNtT4uAhuSCcNTgU6PoV6GqsSKv5t/RQWi6Gv56FzbuV3drRs4Mf5jwWhbjopnZvfVNrRl32uzEFuqqPa1U6o0BXBbN5OpH9EKJAp0A//27qcKk31oyLQ1REiCo3mdhH9/KadExRYKZL7DefNygEd/zLuZdpCnUWiZM56M0q0NVamVNf7kRxyt9Sc/DmZyexbGuxXat27knxgxBYbVtFoImXl8xhcUHbFOj6Fehqj3uxJ/zdLzLwzLJ8u8b4hQZeTTG4vl2awcfJD2uyhbrsd2MKdLc99qR1TIEuDa05Dct+CFGgU6DXvrMWDw3FgG7JdfaayboDhTBOz8zHG5tz8MqmIodfLsQs17j7AnFnh0hFKiubWahzBl3WKIcpi8TV0FRrZY6t7FVXVyM7rwhZJ8pxOMuyUGWwXyM0b+aHyDB/t4ry82OgQNevQBeeT+gThLF9k+Hl5WlraCry95p/u1ZuycTs9cUOL3sXH7lH9fBH385RCAn2t3vW/ELOyxLqst+NKdAVGZKaMkKBrql06N8Z2Q8hCnQK9Np3iZhFf39sHGIi1ZlFP7//8vIKpKYX4Lv9JfjP/krsSa2yKIBzVzs/NPVvgGsv9sJl8V5omRiEoEA/KR8TzCjUKdDl/Zth1hl0QVR8RPt4Ypxq1c/lZVFdyxTo+hboYiZ6+6xYXH5xtLoDB0BVVTWOZRZg5/6ic/+W/ny4GrsOlP/PD/Gsjw1thJZxHmid6IXLmwchNNgfjRo1kuKr0kJd9rsxBbqUYeBWoxTobsVvvM5lP4Qo0CnQrd010/sFY2Sf5m7Zd6m1u9hMQp0CXd7oM7NAF1QXDG6KwT2SpB49JS977rFMga5vgS68f6JrAGYMSoS/n497BpHGelVKqMt+N6ZA19jAUcAdCnQFINLEPwRkP4Qo0CnQrd1v4sv/pxOj0aF1LG/Hvwns2ZeOjmMzHF6CryeAFOjysmV2gc5ZdMfHFgW6/gW6iOCD58L/d36446PAeFcczcjDHS+kuXQ8nOx3Ywp04407CnTj5dStEcl+CFGgU6DXN8DFWa5LR8YjrGmgW+8BLXReVFyKIfMP451txVpwR5oPFOjS0Jp6D3oNVbX35MrLpjqWKdCNIdDFx6n1zzdD8/hwdQaOhnuprKzCtJWpmLTKtSMQZb8bU6BreBA56RoFupPgeJl1ArIfQhToFOgXuvdmDQjB8F5J8PT0MO0tKs5tX7opFYMW5BmeAQW6vBSbfQZdkBUrcza/EIWUq2IVKUAlL1vasEyBbgyBLqIYdmcgpj6aYOql7mK72JbvjqLLhEyXbzDZ78YU6C6nSHMGKNA1lxJ9OyT7IUSBToFu6w5ZPToc93RKlFKIzVbf7v67eKHY/tMxdJ2Yaeil7TWcKdDljTgK9L/YipU5S56OQ0RokDzYBrFMgW4cgS4iMfsH7wOHstFrWoZLS9trRoTsd2MKdIM8RM8LgwLdeDl1a0SyH0IU6BTotga4mWe9lHyhsMVZC3+nQJeXBQr0f9hOezgYo3onm3pljj0jjQLdWAJdRGPWD97ZeScx8OU0fPR9qT1D32Yb2e/GFOg2U6C7BhToukuZth2W/RCiQKdAt+cOEHvo1o6NQYukCHuaG6KN0i8UeoBCgS4vSxTolmzNKlQcGWEU6MYT6Gb84F1cUoZxbx7B/I8KHRn+F2wr+92YAl2xVGnGEAW6ZlJhDEdkP4TcIdC9vRrhong/JMb4IDbCGxFNmyA0yBMBfo3h49UIjRs3PJe8U6fOoKzyNPy8ziIiyBM+HoCfJxDQBAhsAvzdzOVEb/8pDdePznDZji0DssVPWVk5hs5PxbItcgqZmUmky3ihsDU+tPB32WO0Jka17jl7mR5ckoxkyQWcKNAts2FGoWLveKxpR4FuPIEuIjLT2Bfnsc9bewjPLs13dPhToCtKjMYo0DkGFCVgFIHeMskfbVsG48oWgWiR4KcIoyBvINQHCPcDgr2dN6mWWJAtfmQLdEFYiPQ1Y6PRIjHCsEWeRMX28UuPKvq13/nRqe6VsscoBfpRbNlbpkhS+3f2x4JhyfDxceHhdwFPlP6gYK0rMzxPXEk2BboxBXqNSP9oQiT+dXWcYf8tFRXbX1lzGGPeUlacC36y3405g+7Kk0ub11KgazMvuvVK9kNIgJEl7JqFe+Pma8PwrzZNERXaRGoOfDyBaH+gWSDg6+lYVxTojvESL9XLngpH28tiDPdikXuiEKMXp+OtrUWOQTFIawp0eYlUWvAaQaCb5aOfs6OKAt24Ar1GpL/3TDhuT4k3XBHWktIyTH/vKKaudu04tfpGgOx3Ywp0Z59a2r2OAl27udGlZ7IfQjIE+hUXB+LOGyLR4coQtzCP9AcSgoGmPvZ1T4FuH6fzW4kleu+MCkPXlHg0atTIcQMau0JUa09Ny8Xg+Vn48mdlithoLES73KFAtwuTU40o0OvHJj76vfNsJK64OMpwH/2cGix/X0SBbmyBXhPdoidD0e/2eHh5OTi74MrgknitqN/y3JIMqR+6Zb8bU6BLHCBuMk2B7ibwRu1W9kNISYEulrHf2yUG17QK1kQ6xNL35k1tL3+nQHc+XTP7h+CJ7rHw87Xza4jzXUm78vTp0/hmTzr6zc3Fsdxqaf3owTAFurwsUaBfmG1smAfefSacZ6Sfh4kC3RwCXUQ5vFsgJvRthqYhAfIeQpItiw/dvxzIxJCFOdjxW7nU3mS/G1OgS02fW4xToLsFu3E7lf0QUkKg+/s2Rr9ucbgtxf4K38dzK/DH0RIczihFRk4FcvIrUVBUhdLy06g+deZcQj0aN4SvdyO8OiQCN7eLRUklUFwJnKwASqvsz3lcENAiDPCsZ6KXAt1+ltZadm3ri3mPRyIpLkx3s1/5J4vx8pp0TJG0DM81supfTYEujzkFum22YmXOnAEheOg27c8miuJXh9JP4JKkSNuBOdmCAt08Al1E2uFSb7w8KBTX6HD7mFjS/u4XGXhmWT6Ky/56h5P5k/1uTIEuM3vusU2B7h7uhu1V9kPIVYHe8ZowDOwZj0A/D5s5+GFfAXb9twA//X4S2ScqbbavabBiZBj63t7con1ZNZBXCmSXADkltk0Jcd4yHIgJrNuWAt02P1stxIv1S/1D8MAtMbqYTa+qqsLm7ekYvjjf9LPm5+eWAt3WSHf+7xTo9rMbfHsAxt8fiWZRTe2/SMWWom7Lq+vTEBXcqM6/TUq6QYFuLoFeE+343kF4+p5mCAnyV3I4SbElVqDt/DnjXCE42bPm5wcg+92YAl3KcHGrUQp0t+I3XueyH0KuCPShfZJszpqLmfLPdmTjy+9zUVDk3PJhawL9/ExXngLSi4BjJ23PrIvZ9MtrTXhQoCt334gZgBmPhKDdFdHwaNxYOcMKWao+dQo/7s/CpPfysXm3efea14eTAl2hgWbFDAW6Y2zFkvd5g0LQNaUZPD21sTdXLOFNz8zHhLezzu2vtfVvk2MR121NgW5OgS6irhn/t3WIQRMvL1eHkuLXnzlzBr8fysFLa/OkHe16IadlvxtToCs+ZNxukALd7SkwlgOyH0LOCHRRnf3ph5pf8Li0I8fL8OGXx7F1V67LCXHkJSi9EDiU/9dS+Pp+4ni21lH/VHunQHc5RXUM3HylL8bfF4iU1lGaeLmuqKzEtt3H8dKHxaYuAmcr0xTotgg5/3cKdOfYiWfJxAeC3P7Rr7ikFO9tOW6xhNeRf5uciZ4C3bwCvSZyUUBx0gOBuO26aGlHKjoyNms+cr+0rgBrttuxfNER4w60lf1uTIHuQDJ00pQCXSeJ0oubsh9Cjgp0UaF9TP+L6l3SXlZxGis/OoaNX2cqhtiZl6AjBcCBXODv7ex1fBFL3q+O+avSOwW6YqmqY0i8XDzXKwC3twtHSLC/qnvUa/aIvvNlAV7ZVKTKvjh5JNWxTIEujzMFumtshVAf2d0fN14dodo2GjFjnpVTgPe/zsXs9cV1tsM482+TIxQo0CnQawiIGfVRPfxx741hiAwLUvVYNrGMPe14PjbuzLd6HzgyppVqK/vdmAJdqUxpxw4FunZyQU8UJnDdFSEYN7AFGjSwbvir3Xl488MjTi9lV9hdBAd44NG7E3BT21Crps+eBaYuOYDvfslXumvas0Lgzmt90e9mX6RcFozw0EDFj2cTLxGFRaXY/Xs+Pv6hDMu2FlOUcySSgMEIiHoX/Tv54+FOgbgkMQQ+3k0U/fBXXV2NzNxCfP9bIV77pPSCK270JtANNhRMG067Ft4YfJsvbroyCM0ig+DhYbsGkCOwxPL14pIy7D9UgI93l+DtL0tZq8URgGyrSQIU6JpMC51ylYAQ5+MHtajXzIJVh/Dp9mxXu5FyvaguL/bL1/ebspgiXQr4CxgVL9l3tfPFLVc2QetkHzQN9EJIoM850V7fWbBiNquyqgpnTp9BcVkl8gsrcCSrHPvSqvCffVXYuMt9y+3U5sf+SIAE/iIgxMo9Kd64roU3moX7IDTYB40bN4KXp2e9wr2ysgrig15FZTVyC8pxLKccew9XOvwcoUDnKNQCgbva+eH2Nk3Q9iJvhAY1cfoeOJhZjW3/rcAne8r4cVsLiaUPihKgQFcUJ41pgYBY1j51aEurM+fHcyowe8WfOHBE2+KoRYIfRj10EaLDm9RBKmbSxy3Yj1/+KNQCbvpAAiRAAiSgAwKfTYpCl/YJ0jxVeom7NEdpmARIgAQ0ToACXeMJonuOERAF4WY83crqnvN9qcWYvvSAZpa024pMLHl/bkALtEque3RJYUk1xry8D+k55bbM8O8kQAIkQAIkgD1z43B1qxhpJH7cl4E2I9Kk2adhEiABEjALAQp0s2TaJHHOHnW51Wrtew8UYtKi31FVfUZXJDw9GmLC4EvQukXdA9HFKoBRs/+rq3joLAmQAAmQgPoEWjTzwudT4xAXbb3GiRIeqVXAVAlfaYMESIAEtEyAAl3L2aFvDhGo75xzMXP+/Kv7dSfOa4IXIn3yky2tzqSLffRiPz1/JEACJEACJFAfgYFdAjD3yST4+nhLg0SBLg0tDZMACZiMAAW6yRJu1HA7XhOGUQ83rxOe2HM+5pVfdbOsvb78iOXuM566zOqe9NlvH8S2H1w/v92oY4NxkQAJkIDZCSx9KhT9uiZLPe5q1eepuH9WjtlRM34SIAEScJkABbrLCGnA3QT8fRvj9fGtre47F0vAtV4Qzl5+onCcWMJf+yf2oz8+ZS+KS0/Za4rtSIAESIAEJBIQJz9MvD8Ih7NPY/5H7i3oKZa3fzIpFomxYdIiFkddLd2UikEL8qT1QcMkQAIkYBYCFOhmybSB46xvabuWj1JzNh31HcHGpe7OEuV1JEACJKAcgdgwD4y/LxD3dYxCUKAfMrLycd+0NOz4zX0FPRcMborBPZLQuHFj5QKtZUmcxz7z3VSMX1kgrQ8aJgESIAGzEKBAN0umDRpnyyR/zHz6sjrRfbU7Dy8t/9OQUT/T7yLc1LZuoZ/RL/+K/YeKDRkzgyIBEiABLRMQwnxC70D07hQNfz/f/7l69uxZbP/pGLpOzHTLWc13XuuLJU/HISI0SCq+ktIyPDnvEN7+kv8GSQVN4yRAAqYgQIFuijQbN8gXHr8E17QKtgiwrOI0Bk/+Sff7zuvLmtiPvuj5q+DTpJFFkx/2FWDi678bN9mMjARIgAQ0RkAI8+n9gtEtJdJCmJ/vplj+ve2HNNw9LVtVkd4q3gtrx8agRVKEdGrHs/PRc3Iadh1w30oB6UGyAxIgARJQiQAFukqg2Y3yBK64OBDThrWsY/iNNUew8etM5TvUkMW7bozCY/ck1PFo7Pz9+OUP9+531BAmukICJEACUggIYT7n0WB0bR8NHzsqowuR/vXuY+g3NxfHcqul+HS+USHO33k2EldcHIUGDRpI749noEtHzA5IgARMRIAC3UTJNlqoYwe2QIcrQyzCOnK8DEP//bPRQrUaz4L/uxIJ0T4Wf9vxcz6mLTlgivgZJAmQAAmoTUAI30kPBOK26+wT5uf7J5a7H0rLxfDXs7B5d6k01x/pFIDJ/SLRLKqptD7ON8wCcapgZickQAImIkCBbqJkGynUZuHeeP351nVCennlQWzdZY4jxzq1C8PTfeseLff45L1Iz+EyQyONd8ZCAiTgXgJCmE/tG4Rb28egiZeXS85UVVVh8/Z0DF+cr+hsupjVnzcoBF1TmsHT09MlHx25uLSsHCNePYQlnxc5chnbkgAJkAAJ1EOAAp1DQ5cEHr4zDvfdGmPh+/HcCjw26SddxuOs029MuArRYU0sLn//swy8/VGasyZ5HQmQAAmQwN8EOlzqjXH3BeLma6JdFua1oZaVlWPbnizM2VCML392fka9duV4tZN3+Fgubp9wDAfSK9Xumv2RAAmQgCEJUKAbMq3GD2rxC1chKtRSmC7bcBRrtxw3fvDnRdirczT6d4+3iDkzrwKDJprrQ4Wpks5gSYAEpBOoEeadr42RPhstlr4XFJZg/6ECbNlbhk9/rLBZbE3M6Pdq740eHQJwaVKo4h8P7AUsfF//1WH0nJZt7yVsRwIkQAIkYIMABTqHiO4I1He02kPjdhu2cnt9SRIV3VdMbVvnzzxyTXfDmg6TAAlogMDNV/qeO8c8pXWUdGF+oXDFvu7KyioIAVxcVomTRZVo3KgBwpv6wsOjMbw8PVUp/mYrJcUlpRg6/zCPV7MFin8nARIgAQcIUKA7AItNtUHA2vJ2Mx8xZu2oOS5z18ZYpRckQAL6IrD0qVD065qMhg0b6stxN3n7w3/Tce3IY27qnd2SAAmQgDEJUKAbM6+Gjmr2qMvRIsHPIsYFqw7h0+3mXGJ3W0oEhvZJsuBx4EgJRs3+r6HHAYMjARIgAaUJiKXta8bFISrC8oQQpfsxgr3y8gr835JDeGUjj/Y0Qj4ZAwmQgHYIUKBrJxf0xA4C3l6N8MFL19Zp+eiLPyL7hDkL1EQ09cKbL15dh8m9z3yP8srTdlBlExIgARIggRoCnEW3byxs/ykN14/OsK8xW5EACZAACdhNgALdblRsqAUCV1wciGnDWlq4Ysbq7bVzYa2a+9j5+/HLH5zZ0MK4pQ8kQAL6ISBm0d8fG4eYSM6i15e1ouJSDJl/GO9sK9ZPYukpCZAACeiEAAW6ThJFN/8i0L1jFAb1TLDA8dXuPLy0/E9TI3qm30W4qW2oBYPF645gw7ZMU3Nh8CRAAiTgDIFpDwdjVO9keHp6OHO5oa8RBeyWbkrFoAV5ho6TwZEACZCAuwhQoLuLPPt1ioDYay32XJ//M+PxarXhWTtuTezJF3vz+SMBEiABEnCMgL9PQ2x+IQopV8Vqolq6Y97Lbb1nXzo6js1AcdkZuR3ROgmQAAmYlAAFukkTr9ewJz/ZElddEmjh/pTFB/DdL/l6DUkRv6+7IgTjB7WwsPXT74V4/tX9itinERIgARIwG4HOrX2wYnQcIsOCzRZ6vfFm553EwJfT8NH3pWRCAiRAAiQgiQAFuiSwNCuHwGvjWiM20tvC+PAZv+BQurlfFpKa+WLemCssuBzLKscTU/fKSQStkgAJkIAJCAy7MxBTH02Av5+PCaK9cIjFJWUY9+YRzP+ItU1MPxgIgARIQCoBCnSpeGlcaQLv/LstAv0s9wQ+NG43Coqqle5KV/aCAzywYmpbC58LS6rx4P/t1lUcdJYESIAEtEZg1oAQDO+VZOr96EKcT3z7CGZ/SHGutfFJf0iABIxHgALdeDk1dEQfzmkHD4+GFjH2HLkLVdXm3gvn6dEQ6+a0s+BSXX0Gd4/cZejxwOBIgARIQA0CLw8MwZC7zSnSS0rLMP29o5i6+qQaqNkHCZAACZieAAW66YeAvgBsmtceDRpY+txt+E6cPauvOJT2VjARbM7/CSaCDX8kQAIkQAKuExAi/YkeifDy8nTdmE4s5J8sxv+9mYY3Pi3Sicd0kwRIgAT0T4ACXf85NFUEFOjW002BbqrbgMGSAAm4icC43kEY0ycO/n6+bvJAnW7Pnj2L1LRcDJ6fhS9/NneNF3WIsxcSIAES+IcABTpHg64IcIm79XRxibuuhjGdJQES0DGBnh38MOexKMRFNzXkEWzVp05h0zdH8cgreTxKTcfjlK6TAAnolwAFun5zZ0rPWSTOetpZJM6UtwODJgEScBMBcU760uGhuOtfsfD0NMaSdzFrnp6Zj6mrsrDoEy5pd9PQYrckQAIkAAp0DgJdEeAxa9bTxWPWdDWM6SwJkIBBCHRt64uZA8LQsnmkrmfTRSG4d7/IwDPL8jlrbpCxyTBIgAT0S4ACXb+5M6Xnk59siasuCbSIfcriA/jul3xT8qgJ+rorQjB+UAsLBj/9XojnX91vai4MngRIgATUIPDUXYEYelcokuPCdCXUy8rKsXnncYx8swDHcs19XKka44R9kAAJkIA9BCjQ7aHENpohMLRPEm5LibDwZ9mGo1i75bhmfHSHI706R6N/93iLrj/dno0Fqw65wx32SQIkQAKmJHBPih/G9g5Bq+RwzZ6bLpayFxSWYM1XWZjyfiGFuSlHKoMmARLQMgEKdC1nh77VIdC9YxQG9Uyw+P9f7c7DS8v/NDWtZ/pdhJvahlowWLzuCDZsyzQ1FwZPAiRAAu4gEBvmgRHd/HFXh2AkNmuKRo0aucON//UpRLlYxv7TgTzM31SENdtL3OoPOycBEiABEqifAAU6R4euCFxxcSCmDWtp4fPx3Ao8NuknXcWhtLNvTLgK0WFNLMyOnb8fv/xRqHRXtEcCJEACJOAAAVFQrn8nf9xxjQ+uvCgIIYG+8PDwcMCCc00rKiuRkVWInfuLsPrbMnz0PY9Lc44kryIBEiABdQlQoKvLm725SMDbqxE+eOnaOlYeffFHZJ+odNG6Pi+PaOqFN1+8uo7z9z7zPcorT+szKHpNAiRAAgYm0Lm1D1Iu9cJVSZ5oHuONQD9PhAT6oGGjhvDy9LR7H3t1dTWqq08hv7AMhSVVOHCsDLv+qMLXv1Zi14FyAxNkaCRAAiRgXAIU6MbNrWEjmz3qcrRI8LOIT+y1FnuuzfgTe/LF3vzzfweOlGAbZAfCAAAgAElEQVTU7P+aEQdjJgESIAHDEGgV74U2yZ5o1PCvkE4Un8XGXVyebpgEMxASIAESsEKAAp3DQncEHr4zDvfdGmPh9w/7CjDx9d91F4sSDr/w+CW4plWwhan3P8vA2x+lKWGeNkiABEiABEiABEiABEiABFQiQIGuEmh2oxyBlkn+mPn0ZXUMPjRuNwqKzHVMTHCAB1ZMbVuHxeiXf8X+Q8XKQaclEiABEiABEiABEiABEiAB6QQo0KUjZgcyCCx+4SpEhVoWRTPjcWvWjlfLzKvAoInmLponY8zRJgmQAAmQAAmQAAmQAAnIJkCBLpsw7UshYG2ZuxmruVur3s7l7VKGHI2SAAmQAAmQAAmQAAmQgHQCFOjSEbMDGQSahXvj9edb1zH98sqD2LorV0aXmrPZqV0Ynu7bvI5fj0/ei/QcVu/VXMLoEAmQAAmQAAmQAAmQAAnYIECBziGiWwJjB7ZAhytDLPw/crwMQ//9s25jcsTxBf93JRKifSwu2fFzPqYtOeCIGbYlARIgARIgARIgARIgARLQCAEKdI0kgm44TuCKiwMxbVjLOhe+seYINn6d6bhBHV1x141ReOyehDoej52/H7/8UaijSOgqCZAACZAACZAACZAACZBADQEKdI4FXROwdsRYWcVpDJ78k2EruovK7Yuevwo+TRpZ5M7MR83pehDTeRIgARIgARIgARIgARL4mwAFOoeCrgnUd+TaV7vz8NLyP3UdW33OP9PvItzUNrTOn3m0miHTzaBIgARIgARIgARIgARMRIAC3UTJNmqoQ/sk4baUiDrhLVh1CJ9uzzZU2CJOEW/tn4hTxMsfCZAACZAACZAACZAACZCAfglQoOs3d/T8bwL+vo3x+vjWCPTzqMNk1Oz/4sCREkOwapHgh9mjLq8TS2FJNR6fshfFpacMESeDIAESIAESIAESIAESIAGzEqBAN2vmDRZ3x2vCMOrhukeOHc+pwJhXftX9fnSx73zGU5chOrxJnczNfvsgtv1gjqPlDDZsGQ4JkAAJkAAJkAAJkAAJWBCgQOeAMAyB+pa670stxvOv7kdV9Rldxurp0RCTn2yJVsn+dfzn0nZdppROkwAJkAAJkAAJkAAJkIBVAhToHBiGIiCWgIul4LV/ew8UYtKi33Un0oU4nzD4ErRuEVgnJrF0Xyzh548ESIAESIAESIAESIAESMAYBCjQjZFHRvE3gWbh3pjxdCur+9HFTPr0pQd0s9xdLGt/bkALqzPnYt/5mJf3IT2nnLknARIgARIgARIgARIgARIwCAEKdIMkkmH8Q+CKiwMxdWhLNGhQl4rYkz57xZ+aLxwnVgGMeugiq3vOz54Fxi3Yj1/+KGTaSYAESIAESIAESIAESIAEDESAAt1AyWQo/xC47ooQjB/Uol4kWj6Crb6j1GqCmbL4AL77JZ/pJgESIAESIAESIAESIAESMBgBCnSDJZThWIr0cQNbWJ1JF62+2p2HNz88opkl72JJ+6N3J+CmtqFW0yhmzqcuoTjnGCcBEiABEiABEiABEiABoxKgQDdqZhnXOQJiufuY/hdZ3ZMu/l5WcRorPzqGjV9nupXYXTdGoe+dsfBp0siqH2LP+Yxlf3JZu1uzxM5JgARIgARIgARIgARIQC4BCnS5fGldAwRE4binH2putbp7jXtHjpfhwy+PY+sudc8T79QuDHffHI2EaJ96SYlq7S+vOMiCcBoYS3SBBEiABEiABEiABEiABGQSoECXSZe2NUWgvnPSz3fyeG4FPtuRjS+/z5W29F0sZb/52jDc2iEC0WFNLsiI55xragjRGRIgARIgARIgARIgARKQSoACXSpeGtcagY7XhGFgz/h6l7yf7+8P+wqw678F+On3k8g+UelSKBFNvXDVJUFod3kwrmkVbNOWWNK+ZN1RbPtB3Rl9m46xAQmQAAmQAAmQAAmQAAmQgDQCFOjS0NKwVgn4+zZGv25xENXS7f2JmfU/jpbgcEYpMnIqkJNfiYKiKpSWn0b1qTPnzHg0bghf70YIDvBEeIgXYsKbIDHGFxfH+9mcKT/fDzFrvnxTGopLT9nrHtuRAAmQgDQC386MQcpVcdLsb/8pDdePzpBmn4ZJgARIgARIQE8EKND1lC36qiiBlkn+uLdLjF0z2op2XI8xMWP/wecZ2H+oWI3u2AcJkAAJ2EWAAt0uTGxEAiRAAiRAAooQoEBXBCONKEXA36chbm/jgyDfhrj2Ik8E+DSsY/pE8Rl8/0clTp8B9qRWYd9R15afi0rvd94QiQ5XhigVhkN2dvycj4++yWKFdoeosTEJkIBaBCjQ1SLNfkiABEiABEgAoEDnKHAbgdgwD9yb4oNbr/ZBywR/hIb4wcvTEw0aNHDIp7Nnz6Kysgp5BSXIOlGO3X+W45M9Fdi4q8QhO6Lauyje9q82TREVeuHibQ4ZttI4M68C/9lz4lwxuvScclfN8XoSIAESkEaAAl0aWhomARIgARIggToEKNA5KFQlIET5qB7+uKt9COKiQ9CokfVzv5Vw6vTp08jJK8QPv5/E2h1lePtL+5eOi+XvbVsG48oWgRc8ns0RP8VxaT8fKMTu/QVcxu4IOLYlARJwKwEKdLfiZ+ckQAIkQAImI0CBbrKEuyvce1L88EzPYFx1SQQ8PT3c4kZ5eQV+P3ICa7cX4e0vS3Est9ouP7y9GuGieD8kxvggNsIbEU2bIDTIEwF+jeHj1QiNG/+1DP/UqTMoqzyNopJTyDtZhewTFTiWXY7DGWX482gJyitP29UfG5EACZCAlghQoGspG/SFBEiABEjA6AQo0I2eYTfH17+zP57pFYpLksLRsGHd/eTucq+qqhqH0k/gnS8L8MqmIhSX/VWJnT8SIAESIAFLAhToHBEkQAIkQAIkoB4BCnT1WJuqp65tfTGtXyguuyhC6jJ2JaBWVFZi975svLKxEGu2O7ZvXYn+aYMESIAEtEyAAl3L2aFvJEACJEACRiNAgW60jLo5HlGF/dXHm6J3pzh4enq62RvHuhfF5tIz8/HG5hzOqjuGjq1JgAQMTIAC3cDJZWgkQAIkQAKaI0CBrrmU6NchMWs+7/FIJMWFOVyJXUtRC6GeX1CMuesyMGX1SS25Rl9IgARIQHUCFOiqI2eHJEACJEACJiZAgW7i5CsZ+sz+IXiieyz8fH2UNOtWW0Kopx0/gZFvZGLdDi59d2sy2DkJkIDbCFCguw09OyYBEiABEjAhAQp0EyZdyZDFkvZ3RoWha0q85veaOxt3VVUVVm9Nw5Ovn2AxOWch8joSIAHdEqBA123q6DgJkAAJkIAOCVCg6zBpWnG5VbwX3hwejmsvj9H1knZ7eHI23R5KbEMCJGBEAhToRswqYyIBEiABEtAqAQp0rWZG434Jcf7Os5G44uIow4vz81Ox/ac0XD86Q+PZoXskQAIkoBwBCnTlWNISCZAACZAACdgiQIFuixD/XoeAEOdrxkajRWKEqcR5cUkZxiw+jNc2F3FUkAAJkIBpCFCgmybVDJQESIAESEADBCjQNZAEPbkg9pxvfiEKKVfFmkqcixxx9lxPI5W+kgAJKEWAAl0pkrRDAiRAAiRAArYJUKDbZsQW5xFYPToc93RKRMOGDU3FhbPnpko3gyUBEjiPAAU6hwMJkAAJkAAJqEeAAl091rrvadaAEAzvlQRPTw/dx+JoAJw9d5QY25MACRiFAAW6UTLJOEiABEiABPRAgAJdD1nSgI93XuuLpSPjEdY0UAPeqOtCcUkphs4/jLe/LFa3Y/ZGAiRAAhogQIGugSTQBRIgARIgAdMQoEA3TaqdD1TsO/90YjQ6tI513oiOr9y66wg6j8/UcQR0nQRIgAScJ0CB7jw7XkkCJEACJEACjhKgQHeUmAnbT+gThLF9k+Hl5Wm66Dl7brqUM2ASIIFaBCjQOSRIgARIgARIQD0CFOjqsdZlTy2aeWHjhBhcnBihS/9ddVrN2fP+nf2xYFgyfHy8XXXb6vU5eSfx4Iyj2LK3TIp9GiUBEjAmAQp0Y+aVUZEACZAACWiTAAW6NvOiGa+m9wvGyD7N4dG4sWZ8UsuRouJSDJl/GO9sU2fvOQW6WpllPyRAAo4QoEB3hBbbkgAJkAAJkIBrBCjQXeNn6KvF3vPvZsejZfNIQ8dpLbizZ89iy3dH0WWCenvPKdBNN8wYMAnoggAFui7SRCdJgARIgAQMQoAC3SCJlBHGU3cF4t8Dk+Dt3USGeU3bVHv2XMCgQNf0kKBzJGBaAhTopk09AycBEiABEnADAQp0N0DXS5frx0Wg+01JbnW3uroa1dWncPrMGeScKIWXZyOEBPqgQYMG54rWNWzYUHH/3DF7ToGueBppkARIQCECFOgKgaQZEiABEiABErCDAAW6HZDM2EQUh/t8ahziokNVDb/61CmkpuXh0x8Kseo/5dh1oPyC/Xdu7YOUS70g/tsyKRjBgX7nxLsrP3fMnlOgu5IxXksCJCCTAAW6TLq0TQIkQAIkQAKWBCjQOSKsEhjYJQBzn0yCr6SK4rU7PX36NHb+nIExb+Vjx28XFuUXSlm7Ft4YfJsvbr2mKSLDghyeYRez55u+OYzuU7JVHxlc4q46cnZIAiRgBwEKdDsgsQkJkAAJkAAJKESAAl0hkEYzs3hoKAZ0S3ZY4DrDIf9kMSa+fQzzNhU6c3m919x8pS+e6uaHG1qHIzDA166ZdeHL4LlHsGZ7iaK+2GOMAt0eSmxDAiSgNgEKdLWJsz8SIAESIAEzE6BAN3P2LxD719NjcEObOOl0ck8UYvTidLy1tUhqX090DcDjXYPRqnkEGjVqZLUvd86eC4co0KUOARonARJwkgAFupPgeBkJkAAJkAAJOEGAAt0JaGa45OCSZCTHh0sNtaqqGrNXp2Ls2wVS+znfuJhVH39fIFJaR8HT09OiX3fOnlOgqzYE2BEJkICDBCjQHQTG5iRAAiRAAiTgAgEKdBfgGfVSUXDtnTHxCA8Nkhrinn3p6Dg2A8VlZ6T2Y824EOqT+waj3eXR52bU3T17ToGu+hBghyRAAnYSoEC3ExSbkQAJkAAJkIACBCjQFYBoNBMP3+yPV4cnwc/XR1poolr7nFUH8dxy9WbPrQUz5p4gjO7d7Nyf3LX3vMYvLnGXNtxomARIwAUCFOguwOOlJEACJEACJOAgAQp0B4GZoblsoSgYiuXkj84+gvXfqV+MrXYOY8M80O5iL7cUhjvfF9ncc/JO4sEZR7Flb5kZhjFjJAESUIgABbpCIGmGBEiABEiABOwgQIFuBySzNZneLxgj+zSHR+PG0kJPO56HLuPScCC9UlofejNMga63jNFfEjAHAQp0c+SZUZIACZAACWiDAAW6NvKgKS/UEOipR3PQfGCqpuJ2tzMU6O7OAPsnARKwRoACneOCBEiABEiABNQjQIGuHmvd9KSGQOcMet3hQIGum1uEjpKAqQhQoJsq3QyWBEiABEjAzQQo0N2cAC12r4ZALy4pxdD5h/H2l8VaROAWnyjQ3YKdnZIACdggQIHOIUICJEACJEAC6hGgQFePtW56mtI3GKMfSIaHh4c0n8WxZuu/Ooye07Kl9aE3wxToessY/SUBcxCgQDdHnhklCZAACZCANghQoGsjD5ryQrZQrAm2uKQM4948gvkfFWoqfnc5I5s7q7i7K7PslwT0TYACXd/5o/ckQAIkQAL6IkCBrq98qeJtj+v88OaoBIQE+UvvLzvvJAa+nIaPvi+V3pfWO6BA13qG6B8JmJMABbo5886oSYAESIAE3EOAAt093DXda4tmXvh8ahziokNV8TP3RCFGL07HW1uLVOlPq51QoGs1M/SLBMxNgALd3Pln9CRAAiRAAuoSoEBXl7duepP9QlYbRGVlFVZ8ehQjl+ajuOyMbjgp6SgFupI0aYsESEApArL/Pdj+UxquH52hlLu0QwIkQAIkQAK6JkCBruv0yXN+8dBQDOiWjIYNG8rrpJZlUTguPTMfU1dlYdEn5ptNp0BXbaixIxIgAQcIUKA7AItNSYAESIAESMBFAhToLgI06uV9bvDHohGJCPD3VT3E06dPY+fPGRjzVj52/Fauev/u6pAC3XnynVv7IDa0kVUDp88Ae1KrsO9opfMd8EppBPx9GuL2Nj7w9WpQp4/SyrP4ZE+ZaVfVXAh6bJgHbrisCTytD3ucKD6LjbtKFMkbBboiGGmEBEiABEiABOwiQIFuFyZzNvp1YQJaXRTltuCrqqqweXs6hi/Ox7Hcarf5oVbHFOi2SQtRcm+KD2692gctE/wRGuIHL09PNGhQV9zVtnbmzBmUV1Qi50QJ9h0uxhd7K7BsazHFn23sirZoFe+F4Xf6o0MrPyTGBMHHu4nN/FVXV6O0rBJpWUX46WAZNu8px/v/UUZ8KhqcJGPiA1Tv631w7SW+iIsMgL+fNxo1qkeZ1/JBbB8qLavAoYwi7P6zHG9tLcWuA459+KRAl5RYmiUBEiABEiABKwQo0Dks6iXw8sAQDO2VjMaNG7uVUklpGTZ+m4nnlhfoUqjbmumqgZsc2Rgj70uAt3cTKbxP5Bfh36vSkV/s+B7/Y3mnsWVvmRS/bBkVgm7wrX6487pgxEWH2C1MbNkVf68+dQqpaXnYvKsQczcV2xxf9ubSnr6ttak6DXzza4VNP+y1f6HZaXttXKidvf4KP57qFoBHbmmKxNhQRbbOVFRW4khGAVZ/VYA3t5QqxkwJLkrYePhmfzzaxR9XtQiFn6+PzY8Y9vYpthIVFpVi56+5WPpFCdZst/2hgwLdXrpsRwIkQAIkQAKuE6BAd52hYS10uNQba8bFISoiRBMxlpWV49PvjmPCu4W6Wq4se2ZcjeS4o4jTPSl+eKZnMK5uGQkPFT4SCcG3bfdxvPRhMb782fqxf7JzKcb40PmpWLalWJG0ipnXd8bEIzw0SBF7tY3Y8lcI82fvDsSQu6IREuyvmMis7YfI3e592XhlY6FdglMKDAWMig9Ao3r4o2/nKKm8alytqfvxxuYcvLKpqN7VJBToCiSXJkiABEiABEjATgIU6HaCMmszdxSLs8VaLH3//tcs/PuDk9i8W/vnp8sWdbZ4KfF3NQV617a+mNYvFJddFKHobLm9HMT4+nZvJp5fWVCnBoLsXNoSvPbGUNPOnQJ98O0BGNcnEs2iQqQJ89o8hOBMTcvFgo1558S6Xn7iQ8b0h4PxQOdoBAX6qe624JaddxKvbsjClNUn6/RPga56StghCZAACZCAiQlQoJs4+faELmbR3x8bh5hIbcyin++z2FMsXsZf3XRC0y/jskWdPXl0tY0aAl3MHs4bFIKuKc3g6enpqssuXy+2Vrz7RQaeWfbP0X+yc2kEgV6Txzv+FafKygdriRaCc//BLLz4Tp7mZ9Td8SGjvpujhtvopbkWHz8p0F1+nNAACZAACZAACdhNgALdblTmbTjt4WCM6p0MT08PTUIQL5X5BcVYuSUTs9fb3kesdhCyRZ0a8cgW6I90CsDkfmK2taka4djdhxhbvxzIxJCFOedm02XnUu8C/eYrfbFoWCSS48JUmzW/UDLFiRDf7ElHv7m5mtujLmbN33oqFN1uiHfbh4z62ImPU69tOIbRy/LPNaFAt/uRwYYkQAIkQAIk4DIBCnSXERrfgHiR/HRiNDq0jtV8sELgbNuThTkb6t9HrHYQskWdGvHIFOiLngxFv9vj4eXl/lnz+ljmnyzGxLePobj8DBYMS4aPj7cU7HoW6MO7BeKFh2MREuQvhY0rRtMzT+D55Vl4a2uRK2YUu1ZrHzKsBSZWKH29+9i5jxvvPRuOlKviFIu/tiGZzxdpTtMwCRiEgK93Ga5o8RsuSTqI5LgjiI06jsjQXIQEFMLXpxSeHn+dolNV7YHSMl/kFwUiKy8MxzKjkZqWgN8PNccvBy5FabmPQYgwDBJwPwEKdPfnQBce3HmtL5Y8HYcIScWmlIYgqnP/+mc2pq3Od/sSVwp069kVH37eeyYct6fEK1LVW+kxVNueEM9rv85ArxtjKND/hlPzQaF5VGOMuCdeGhclcitmhae/dxRTreyxVsK+vTbEapGZg5ohrGmgvZe4rd25FSR/ZKKi8gzaXdFMmh8U6NLQ0jAJWCXQptUvuOnanehw9W60vmSfIpT2/t4KO35si6++b489+65QxCaNkIBZCVCgmzXzTsQ97M5ATH00Af5++vlKKmaBfkvNduteVAr0uoNNiPOPJkTiX1fHaWIptL23gxhP4sx1e85dt9fm+e30OIP+8Y7j6H5DnGa3wJzP190iXTxDpwyIR4C/rzPDw23XiHHfsGFDaf1ToEtDS8Mk8D8CSbFpuLvzJ7jzpi2Ii86QSibteAw++qozPtxyOw4dk7f6RmoQNE4CbiRAge5G+HrsWix1vLdTgluqa7vCS+xF3bM/ExPfzVe98jsFumXmhDjf/EIUUq6KlSZ0XRkr7rxWbwLdnayc7bu4pAzj3jyC+R+pW+Vdjx84nWXs6HUU6I4SY3sSsJ9A+9Z78FD3tbj1+q/sv0jBlp99exNWbOiFnXvbKGiVpkjA2AQo0I2dXynRrR4djns6JUqdUZHiuNhDVVWFzdvTMXxxvmpFoyjQ/8mmXmfOZY3H2nYp0NUhnZVbgIdmpmHL3jJVOtTrzLkqcABQoKtFmv2YiYBYxv7E/SvQsd12TYS9bVcKXnvvIS5/10Q26ITWCVCgaz1DGvRPiKwPx0ag4zVxuhTpAqk48/eFtzOw6BP5RaMo0P8ZxHr+uKPGrUiBrgZlQOyt3v7TMXSdmInisjNSO9Vb/Q6pMOoxToHuDurs06gEggMKMWrA67j/jg12h3gkIxY//37puYJvh9PjkJEdhdyCEBSX+qGy6q8Crl6eVfD3LUFYcD5iIjKRGJuGSxIP4spLfkNCzDG7+3rv4+6YvfRxFBRpvw6H3UGxIQkoTIACXWGgZjGntwJf1vIilr1/tjMNjy88IXU2nQL9L/qzBoRgeK8kXexVdtd9TIGuHvnKyipMW5mKSatOSuu0VbwX1o6NQYukCGl9GMEwBboRssgYtECgR+dPMW7wfIQEFdh0R8xob92Zgv/saYf0rCib7S/UoFlkJv7VZhc6td9u14x9/slgTF00DOu33OZSv7yYBIxKgALdqJlVIS4h0l97oinu65yguXN87Q1fzKSlHT+BkW9kYt2OEnsvc6gdBTpwT4ofFo1I0OQRXA4lU3JjCnTJgGuZP3wsF7dPOIYD6ZVSOt4wPgLdbkhkrQUbdCnQpQw/GjUZgSkjZticNRcz5as3dztXvC03v6kUQmEhJ84Vo+vddZPNmXUxmz5+7hgpftAoCeiZAAW6nrOnEd9n9g/Bkz3iNH3Eki1UorrzaxuOYfSyfFtNHf672QW6+JCzfVYsLr842mF2ZruAAl3djJ86dQoL1qbi6SXK3/cT+gRhbN9keHn9tTyUv/oJUKBzdJCA8wREdfZZoydf8Li0A4eTseSD+7Hui67Od+TElT1v2YyB976HFomp9V4tjmd7dubzrPbuBF9eYlwCFOjGza2qkYmzfSf3i0SzKDlfZNUIRpyd/v6WI3jitROK7ks1u0BfPDQUA7ol67ZegRpjr6YPCnQ1af/V1/6DWbhu1FFF7/kOl3rj/bFxiIkMUT8gHfZIga7DpNFlTRAQFdrnjZtQ75L2kjJfzHlrEJZ/eJ9b/e139/sY+chi+PmUWvVDLHkfPnUSK727NUvsXEsEKNC1lA2d+xIb5oHlI8JwQ5tmujuGrQa9OO932w9puHtatmIv7GYW6Fza7thNTYHuGC8lWpeXV+D/lhzCKxuVO3aNS9sdywwFumO82JoEBIHOHf6D1198Dg0anLUKZMPWW/HvN4ZKW8ruaBbE0vf/e2wBunf6zOqlZ882wOMvTseWHf9y1DTbk4DhCFCgGy6l7g9o8O0BGH+/fmfTxb703b9moP8rOdh31PW9qWYW6J9PikLn6+K5B9fO25IC3U5QCjYT9/v6rw6j57RsRaw+2NEfC4clIsDfVxF7ZjBCgW6GLDNGJQkIcb5oYv17t8W+brG/W4s/UV1e7Jev7zf4hRkU6VpMHH1SlQAFuqq4zdOZmE2f3i8Yd10fBT9fH90FLl7af/kjEw/OynJZpJtVoD/RNQAzBiXC309/+XfXgDWyQK+orERmThF+TytBSfk/R5slRnohqVkgggP93PYh5+DRHFw9/LAiq2a+nRmDlKvi3DWEdNkvBbou00an3URALGtfMXO41ZlzUQRu1IwJ2PtbKzd5Z1+3rS/dh9ljJlktIidm0h8aPY/L3e1DyVYGJUCBbtDEaiUssRdzct9gXN86Cp6e+iqWpNRMulkF+pYpUejULkErQ1EXfhhNoIt7KDUtF69/nIc3Piu+oAAW2yGe7RWMNi2jVN8ik3+yGI/OPoL137l2ksPDN/tjwTDxUYqz547ccBTojtBiWzMTEAXhVs95wuqe892/Xomhk6doZkm7rTyJJe8Lnh+Ptpf9XKep2JPee+RrLBxnCyL/blgCFOiGTa22Arv5Sl+Mvy8QKToT6kJgbP/pGLpOzFRkdu1CWZEt5HPyTuLBGUexZW+Z9MGhBaEicieq8/959CR+Si3D939WofrUP3v1PBo3wLUXeeKqZB9cFB90bqVHgwYNpLO5UAdGEuhC9L68Jh1TVjt2zrjYIjPx4RhEhAaplgtxJvrkFamY6qCvtR3Uwkep06dPIyO7APsOF2PXgUqk5Z6ycDMurDHatfBCq0R/xEQEq/4xxFpSKdBVG+rsSOcE1s4fZLVa+/Yfr8Fjz89ERZWXriJs4lmJNyaPRsrVP9TxW1R37zVssa7iobMkoBQBCnSlSNKOXQTEjPq4+wJx8zXRaOKlj39IROG4NVsPo/fMHLtidLaRkQT6urER6HGTe85/FgLl1z+zMefDfLz9ZRKlueIAACAASURBVLHd6RBL8od2a4pLksLdVnHeCAJdfBj5/r8ZeHSe8zUcxHNi2dNRuDgxwu78udJQjJnXPkzFsEUnnDZz57W+WP5MAkKCA5y24cqFJwtL8MFXmXhlU7Hd23JaxXudex7f2SHSrbP+FOiuZJ7XmoVAfeeci5nzfmPm6k6c1+RNiPTlM0ZYnUnnOelmGd2MszYBCnSOCbcQEC+Gkx4IxG3XRevi/PSKikqMX5qK2R8qV+m5NnijCPQWzbzwyaRYJMaGqTq2hDA8lJaL4a9nYfNu60e52OOQmMEd10cUOQxRfUZd7wJdfMz6ZPtR3P9SjssrToTgXfJ0nGoz6Ss/OYiH5uTaM0Sstnl5YAiG9kpG48aNnbbhzIVi9n/Fp0cxcmm+08xFzZB5g0LQNaWZW7YiUaA7k3leYyYCPTp/em7Pdu2f2HPeZ+RC3Sxrry9nYrn7qjlDrO5JF3vq12+5zUzpZqwkAAp0DgK3EhAvhlMfCkK3DpEICvRzqy+2Os/Iysd909Kw47dyW02d+rtRBPrT3QMxbWAymjRRb4WE0mfY1xwZeGPbWFVn0/Us0GVsBxl2ZyCmPpqgSqHBz3cewa0TMp26d8VFe+bG4epWMU5f78yFacfz8PSiTKzb4dre+Zq+h3cLxAsPxyIkyN8Zd5y+hgLdaXS80AQEggMK8fmbD1jdd95r+GLNF4SzN0WicNzaeYPqNBf70bs8+i4KigLtNcV2JKB7AhTouk+hMQLw92mIF/sEod+tUQgJ9ld95tIeikKAbPrmMLpPUeY4ptp9GkWgrx8Xge43JdmDVJE2VVXVWPjhITy9JF8Re+cbeXtkGPrckgAPlWZF9SzQDxzKRq9pGXYvr7Y3WR88F46eHROlfyhxRST2uM4Pb45KUFXY/nE4G/1fzlT8g6FYubBgSDTiY0LtTZHL7Vxh73LnNEACGidQ39J2LR+l5izS+o5g41J3Z4nyOr0SoEDXa+YM6rcQ6s/eHYhBd0ScW9rq7qJdtTEXl5RhzOLDeG1zkeIZMIJAF/n7cV4imseHK87HmkEhzuetPYRnlyovzmv6Wz06HPd0ki8QRX96FeiiINzguUewZrsyM7nn51rsR18zLg5RESFSx5QrIlEcKTmyT3PVPuTI+hhSA1jt7QWusJc6KGicBNxMoE2rX/D+3MfreLFh660YOf0FN3snp/s5z01E906f1TF+34jXsWffFXI6pVUS0BgBCnSNJYTu/EPguXuCMKRbuFv2Al8oD7JeJo0g0Pvc4I9FIxIR4C//mCmx33ndtsO4d7rc4n3io8PmF6KQclWs9A9GehToIg/vbzmM+2fJy4MaRQddua8/mxSFLu3VOVIw90QhBsw5io++d77Ogj3/zqi5vcAV9vbEwjYkoFcCS6Y8i47ttlu4X1Lmi879V+l+33l9ORH70bcs6wM/H8tn3LZdKRg4fpZeU0m/ScAhAhToDuFiY3cQEEL9ybvCEROpftEua/EWl5Ri6PzDDlUIt4ebEQT6lL7BGP1AMjw8POwJ2aU2RzPycMcLaYovqbbmVOfWPlgxOg6RYcEu+WzrYj0K9PyCIvR76YhUwahGXQNXROKBN5JUqTh/6tQpLFp/CENdqDZvawye//eVo8Jwf5ckTW8vcCQetiUBPRFo33oPVs4aVsflSQtHYPmH9+kpFId97Xf3+5gwZG6d6/o+Ox8797Zx2B4vIAG9EaBA11vGTOqvmMV8qX8IHrgl5tx51e78ib3o6786jJ7TlN2LbgSB/t6z4ejTJVl6esTS9mkrUzHxvQLpfdV0sGBwUwzukSS1SrceBborwtbe5LVr4Y11z8chWuIyd2fjuLWNL1aOjkdoiPwCRvsPZuG6UUedrtZuL++aduK0jY8nxknfj+4se0fjYXsS0BOBhS+Mxa3Xf2Xh8oHDyej62Ao9heG0r5vfeAgtElMtrv/s25swZOI0p23yQhLQCwEKdL1kin6eIyD2o854JATtr4xBo0aN3EZFVE/uMi4NB9IrFfPBCAJ9x6xmaN86VjEm9RlSW6jUjD3Ze6H1JtCVOD/c3sEiu0q6syLxsdsCMHdIMry9m9gbilPt3PFRSji69KlQ9OuaLHUW3Vn2ToHkRSSgAwJJsWn4YmmfOp4+O3M81n3RVQcRuO5iz1s2Y9boKXUM3TJgFQ4di3O9A1ogAQ0ToEDXcHLoWv0ExtwThNG9m6laNfl8b8S56GOXpOLlDcqdi24EgX5wSTKSJReIE3uel25KxaAFearfIrL3QutNoMu4D+pL6rczY5BylbyXMmdFoloF4o5n56Pn5DTsOiDnmMf6uIuCccufSUBIcIC0+81Z9tIcomEScDOBUf0XYcgDyy28EGeed3pktZs9U7f7rW/1rnM2+sJ3+2H2ssHqOsLeSEBlAhToKgNnd8oRELPprz0ZjssvjpJevKu21zJEot4F+o2X+2D12Phz1fdl/oqKSzF47mGs+qZYZjdWbcveC603ga60vxdKqOztE86KxLdGhOHhrsnSn0GuntPuys2i1dULrsTEa0lAywS2Lb8XcdEZFi7OWDwEb7zfV8tuK+7bY/etxJhBCy3sph2PQcd+HyjeFw2SgJYIUKBrKRv0xWECalbYru2csy/09QWpd4Gu1l5cGdsL7B14sj9CKC14RXG7d8bEI1zSRxOl/b1QHlaMDEPf25vbmyqH2zl7P8v+cCACUXMrgTVwsj9COMve4STzAhLQAYH6jla7rvcmw1Zury8toqL7d6u71fkzj1zTwUCmiy4RoEB3CR8v1gIBUcho7dgYtEiKUNWd1KM5aD7QsoCJKw7oXaDL9r+G7c69x9Dh2XRXULt0rcyK3UoLXgp0+1PtrEiUvfReRFBeXoERC1PxxqdF9gekYEvZpzM4y17BEGmKBDRDwNrydjMfMWbtqDkuc9fMcKUjkghQoEsCS7PqEniwoz8WDlPn/O2ayHLyTuLBGUexZW+ZIsHKFrhK+1s7aNn+1/S34atD6DFV2Qr6jiRQpiCjQK8/E1qdQZc5Hmpo5J8sxqOzj2D9dyWODFXF2sq+tynQFUsVDRmAwNr5g9D6kn0WkYyfOxrvfdzDANE5HsL9d6zHlBEzLS7c+3sr9Bq22HFjvIIEdEKAAl0niaKbtglsmRKFTu0SbDdUqIXSglf2S7DS/rpLoK/85CAempOrUBYdNyNTkFGgU6BbIyD73rV1F8h+NlGg28oA/24WAr7eZfhlY+c64d740FqkZ0WZBYNFnM0iM/H1il51Yr/iri0oLXfvsbumTAiDVoUABboqmNmJGgRkL8OsHYPSYkr2S7Dsl3zZ/tfwp0C3/27iEnf7WTkrEmV+sKnxXva9a4uS7HvbWfa2/ObfSUBvBNq33oOVs4ZZuG3G6u2182atmnvfZ+dj5942eksx/SUBuwhQoNuFybyNtk2LxtmzQL+5uTiWW61pEA/f7I9XhyfBz1edL6oU6JbDQfZLPAW647cfBbr9zJwViRTo9jOur6Wz7F3vmRZIQFsE+vdcjfFPvGLh1IatXTBy+ovaclRlb+Y89yK6d/rcotcprz2FZet6q+wJuyMBdQhQoKvDWZe9TOgThLF9k+Hp6YHUtFwMnp+FL38u1WwsssVI7cCVPu5LtsCVPQsn2/8a/tyDbv8tKPueUPoj1YUi4x507kG3f+SzJQnok8CUETNw/x0bLJyfsWQI3lhtruPVamfP2nFr733cHePnjtFnouk1CdggQIHOIWKVgKiMvv75ZmgeH/6/v58sLMH0VccwY81JTVLrcZ0f3hyVgJAgf1X8U1rwyha4SvtbG7Js/2v6c3cV94NLkpF83n2h5GBTWvBSoNufHWdncdWYQXd3Fffp/YIxsk9zeDRubD9QB1o6y96BLtiUBHRBYPmMp3D91T9Y+Pr4C9PxxY4bdOG/LCdv6fANXp/4nIX5b3+8Bv3GWK42kNU/7ZKA2gQo0NUmrpP+Fg8NxYBuyWjYsKGFx+I83s92puHxhSc0t+RdLYFYA0RpwSvbf6X9rT2UZYvBmv7ceQ667LPeKdDrf0BqdQZdtl+CiLvPQZd91jsFuk5eDOimdAKfvfkAmscdsein2+PLsT/1Iul9a7mDlsl/YtPr/SxcPJiWgFsffVfLbtM3EnCaAAW60+iMe+E9KX5YNKL+meizZ88iPTMfU1dlYdEn7jmX1xr9+YOb4om7k9GoUSNVkqO0UNS7QL/xch+sHhuPiNAgqfyV3lrgiLPjegfh+YeS4eXl6chldrelQNefQH9rRBge7pqMBg0a2J1nZxp+vvMIbp2Q6cylLl/z68IEtLpIXgVpCnSXU0QDBiHwwwd3ICSowCKa63pvQm5+U4NE6FwYYSEn8N3qbhYX558MxjX3fuycQV5FAhonQIGu8QS5w72vp0fjX1fH2XzhFLM6O3/OwJi38rHjt3J3uGrRpxpLTc/vMPVoDpoPTFUsbr0LdAFC5vLvGtBnzpzB8s2pGPBKnmLs7TX02aQodGkv7yg/CnT9CXTZy79riGRm5+OeqWmqP2v73OCPRSMSEeDva+9t4nA7CnSHkfECgxLY//FN8PKssoiu1Z3bUFHpZdCI7QuriVcl9n3U0aJxZZUnWt7xlX0G2IoEdEaAAl1nCZPt7qi7AzFlQDKaNLH/H4Oqqip8siMd41aexL6jlbJdtGr/wY7+WDhM7ktk7Y6VfqmULdDzTxbj0dlyC02p9ZFk/8EsXDfqKIrLzqg23jpc6o014+IQFREirU8KdP0JdNn3bQ2RqqpqTFuZionvWc6uSRuMfxte+lQo+nWtu91JyX6VfpYq6RttkYCaBA5+noIGDc5adNm8y3acPSt3hY6aMTrTl2Ai2Jz/E0wEG/5IwIgEKNCNmFUnY2rRzAsbJ8Tg4sQIpyyUlJZh47eZeG55gar70/19GuLTidHo0DrWKb+dvWjV56m4f1aOs5fXuU72i77S4s9a4GrsxxX9ukOsiH2493VOrFOXQbEBAEDpHMmuC6C0vxdiKXtsOSsSZTM+n4naH6bUis1Z9kree7RFAlogQIFuPQsU6FoYnfRBTQIU6GrS1nhf9RWGc9RtNYW6EOdLh4eiZ0e5wqk2g+pTpzD3/VSMXpbvKJ5628sW6JWVVZi8IhVTV8urwj+lbzBGP5AMDw8PxbjUZ+jg0Rz0mJyuyqoNW3UZlApWacErW2Ap7a8eBbrw+cAbSU5/2HRk7IjnzvwPUjFqqXLPnQv1v2F8BLrdkGhzu5MjMVhrS4HuKkFebxQCXOJuPZNc4m6UEc447CVAgW4vKYO3u/NaXywdGY+wpoGKRSpe3rfuzsT0NUVS9k2Ko+BeHxKKDq2bSZ3VtAZEfIR4ct4hvP1lsWK8ZAt0sXd76aZUDFogb++2mkfdiXjWbTuMe6crt4rBWjLFypL1z0fjkqRIxXJdnyGlBS8Fuv0pc0Ukrh8Xge43JdnfmQstc08UYsCco/jo+1IXrNi+dNrDwRjVOxmenvI/trnC3nYkbEEC+iHAInHWc8UicfoZw/RUGQIU6Mpw1L2VzydFofN18VJmSsSsz2+pOXh9cwFe2+x61ffYMA+M6uGPh7pEq3bmee0EH8/OR8/Jadh1QLnieLIFuojhx30ZaDMiTep4lV3x+XznxVL3eWsP4VlJM4pihcaHYyPQ8Zo4VT4CUaDXPzS1usRdeCy7un9tKgcOZaPXtAxpq0ceuy0A/340TrXnKwW61EcyjeuIAI9Zs54sHrOmo0FMVxUhQIGuCEZ9G3GmMJyzEYuZ5//+eQIf7y7B21+W2r1XXcyW92rvjR4dAnBpUiiaeNlfxM5ZXy90nYwXSjUEen5BEfq9dETq7NvKUWF44Fb5x07V5EeI9IUfHsLTS5Rd9ivE+XvPhOP2lHhVxLmIhwJdnwJd9koFa1T+OJyN/i9nKr466ZFOAZg5qJmiq6lsPYNlPE9t9cm/k4AWCSyf8RSuv/oHC9cef2E6vthxgxbdVc2nWzp8g9cnPmfR37c/XoN+Y15RzQd2RAJqEqBAV5O2BvtSc/lu7fDFeerl5RXIyS9FaXk1DmaUo+rUWQT7NUJsuPe55mHB3vDx8YKXp6eU2X1nUnLq1CksWJuquCBUY3m4YL7lu6PoYuM85eHdAtHEswFmrnV8v/pTdwXi3wOT4O3dxBm8Tl0jjvzbvP0oHpydq0hld1Gx/eVBobjmshhVxx0Fuj4FuvD6+zmxuObyZk6NX2cvys47ieeWZOCtra6vTBI+THowGCPuiYW/n7wj1azFSoHu7AjgdUYjMGXEDNx/xwaLsGYsHoI33u9rtFAdiuex3isxZuBCi2ve+7g7xs8d45AdNiYBvRCgQNdLpiT5uWBwUwzukYTGjRtL6sF4ZmXNQqs1Cye2HLy/5QieeO1EHTEriqGN79MUl10UgZ9/z3JqObyYef5xXiKax4ermnzx8SE9Mx9TV2Vh0SfOCRbh+7N3B2LY3c0QFOinqv+iMwp0/Qp0tc5Dr01IHHO5eXs6hi/Ot3tFUm0bN1/pi8l9g3HdFTGqrRY53wcKdNUfNexQowT691yN8U9Yzgpv2NoFI6e/qFGP1XFrznMvonunzy06m/LaU1i2rrc6DrAXElCZAAW6ysC11J1aglBLMSvhyw//Tce1I48pYcrChljN8PnUOMRFhypuu7ZBIWYLi0qx+7c8FJWdRvMYbyTGBMLP1+d/M8aufIhQ4+zk+iCJ2LJyCrDmmzws+qzErn26YgvFc70C0LV9BIID/VSdNT8/Dgp0/Qp0sepizbg4REWESL9/rXVQUVmJ3fuysfizIruLVz7RNQCPdw3Gpcnh8HDjR1oKdLcMGXaqQQLtW+/BylnDLDw7khGLTo+s1qC36rm09a3eSIixfO/q++x87NzbRj0n2BMJqEiAAl1F2FrrSmZhOK3FqpQ/ss/fVrPAmi0mYqZ9zqqD5861d/QnTgVY/kwCQoIDHL1U0fai0vvJwhJk5pX+bwtFTQeejRvgomY+aBbhD3+/fz5MKOqAg8Yo0PUr0IXn68ZGoMdN8o8lszWshFjPyi1Gek4ZMvOrLZpHhXggIcoXEaEBqhyHaMtX8XcKdHsosY0ZCPh6l+GXjZ3rhHrjQ2uRnhVlBgR1YmwWmYmvV/Sq8/+vuGsLSst9TMmEQRufAAW68XNsNUKxx3jqownnZkz5s5+AKMx016QMHEivtP8iB1p+NikKXdonOHCF3KauvDirdYayXALqWqdA17dAF1tEFo1IUK36ubqjU15vrjxn5HlFyyTgHgJr5w9C60v2WXQ+fu5ovPdxD/c45OZe779jPaaMmGnhxd7fW6HXsMVu9ozdk4A8AhTo8thq1rLYZ7t9Viwuvzhasz5q0TFXZpTtjWfx0FAM6Jbsln2g1nx05Tg5ihV7s/5POwp0fQt04T0/TDk+7inQHWfGK4xLYFT/RRjywHKLALftSsHA8bOMG/QFIlsy5Vl0bLfdosXCd/th9rLBpuTBoM1BgALdHHm2iJKF4ZxLuuzZc+GVOH947pBkVSugX4hGZWUVJq9IxdTVjldzp1hxfJxRoOtfoPPDlOPjngLdcWa8wrgE2rT6Be/PfbxOgNf13oTc/KbGDdxKZGEhJ/Dd6m51/nLfiNexZ98VpmLBYM1FgALdXPmGKAy3YnQcIsOCTRa5a+FWVFRi/NJUzP6w0DVDNq5u18Ib656PQ7SbCk1Zc2/DV4fQY2q2U3GLwlnvj41DTKR7Cmc55bQbL6JA179AFxFobSWMG4e0XV1ToNuFiY1MRGDb8nsRF51hEbEZj1t77L6VGDPI8ni1tOMx6NjvAxONBoZqRgIU6CbLOpdfOp5we88Od9yy9Su+nRmDlKvilDLnsp2043noMi7N6X33swaEYHivJHh6erjsi9ENUKAbQ6CLUwHWjo1Bi6QIow9ZReKjQFcEI40YiIC1Ze5mrOZurXo7l7cbaKAzlHoJUKCbaHCIY7zWjYvGpckRbjtGSo+4M7Lycd+0NOz4rVwV9911nnJ9wZWXV+D/lhzCKxudWz0gah5sfiEKKVfFctzZGEEU6MYQ6CKKYXf+VYhTnBDA34UJUKBzhJCAJYGk2DR8sbRPHSzPzhyPdV90NQWunrdsxqzRU+rEesuAVTh0TDuTGKZIBoNUnQAFuurI3dthbJgH3n0mnGLJzjQUl5Rh3JtHMP8j58Spnd1YNHP3ecq1fRYrCN79LBV9Z+c6E865a7i1wj50FOjGEegikpWjwnB/lyTNFH20bxSq34oCXX3m7FH7BBa+MBa3Xv+VhaMHDiej62MrtO+8Ah5ufuMhtEhMtbD02bc3YcjEaQpYpwkS0DYBCnRt50eKd2JGc86AEDx0Wzy8vDyl9GEEo+LM83lrD+HZpfmqh6OV85RrAt9/MAvXjTqK4rIzTrPgjKJtdBToxhLoXD1ie8yLFhTo9nFiK3MRaN96D1bOGlYn6EkLR2D5h/cZGka/u9/HhCFz68TY99n52Lm3jaFjZ3AkIAhQoJt4HDzSKQCTHo5Es6gQLj2uNQ5Onz6ND7Yewf2zctwyQh7s6I+FwxIR4O/rlv5rd1pUXIrBcw9j1TfFLvnD/egXxkeBbiyBLqLhfnTbjwwKdNuM2MKcBKwdMVZS5ovO/VcZtqK7qNy+ZVkf+PmUWiTdzEfNmXP0mztqCnRz5x9ihuel/iF44JYY+Plyr6QYDuK881VfHMHDc5xf0q3EsNJSQb8zZ85g6aZUDFqQ53Jo7z0bjns7JaBRo0Yu2zKaAQp04wl0EdGd1/rijeHNEKWh0xm0dO9QoGspG/RFSwTqO3Jtw9ZbMXL6C1pyVTFf5jw3Ed07fVbHHo9WUwwxDemAAAW6DpKkhoti3/OMR0LQ/soYUwsnIZBeXZ+G0cvUX9ZeO89i3/Y7Y+IRHhqkxhCw2ceP+zLQZkSazXb2NNCrSD98LBeeHo2kHRtHgW5Mga5nkS62+vz0exaubhkFj8aN7bm9HW5Dge4wMl5gIgJTRszA/XdsqBPx+Llj8N7H3Q1FQsQp4q39E3GKePkjAbMQoEA3S6btjPOeFD+8+GAoWjaPNN2y9/TME3h+eRbe2lpkJy35zRYMborBPZLQWNKLsSMR5BcUod9LR/DR95bLzhyxcX7bt0eGoc8tCdJe+p31q77rjmbkYejC45j7WCSS48OVNn/OHgW6cQV6jUhfMCQa8TGhUsaP0kZrVhMdP3EKI/s0l3avUqArnTnaMxKB4IBCfP7mAwgJKqgTVq/hi7H3t1aGCLf1pfuwdt6gOrHknwxGl0ffRUFRoCHiZBAkYA8BCnR7KJmwzeDbA/B/vSMQF93U8EJdvIR+/J80DF+cj2O51ZrKtpaKTAlOc1YdxHPL674kOAvt5YEheKJHouaLFR5Ky8GgeVn48udSHFySTIH+d8KV/qBwoXG0YmQY+t7e3NmhZvM6tUSiWK305ohItEjU9nGXYub87U+OnNvWIvvoR7XY2xwEbEACGiXQo/OnmD1mUh3vxNnofUYu1P1+dLHvfNWcIUiIOVYnxlEzJmD9lts0mhm6RQJyCFCgy+FqGKtP3RWIp3uGG1Koi+PD0o6fwL9XZ2PRJ9qZNa89eLRUZErGi7T4GDTx4RhEaGQp//n8xRj5/r8ZeHReDvYdrTz3Jwr0fwhRoDv3qBfHXb4+pClubR+nyS1FxSWlmLEqDVNXnzwXIAW6c3nmVSSgJIH6lrrv/vVK9BszFxVVXkp2p5qtJp6VWD5jBNpe9nOdPrm0XbU0sCONEaBA11hCtOqOEOpD7wpFclyY7mfUhejKzjuJVzdkYcrfL6Ba5V7jl5h1W/Z0FC5OjHCrq8ez89Fzchp2HShX1A8R36wBTXHdFTGaOTO6qqoKq7em4cnXT1gcL0eBToGu1OAf3zsIo+6NRVCgn1ImXbJT89Fy5BuZWLej5H+2KNBdwsqLSUAxAmvnD0LrS/bVsbf9x2vw2PMzdSfShTh/Y/JopFz9Q52Y9v7eCr2GLVaMHQ2RgJ4IUKDrKVsa8FXsUR/bOwSXXRQhbT+irDDFy2dWTgGWfJKDWR8WunSmtywfL2RXzKS/OTwc114e47aPJBUVlZiwLBWz1hVKQSAEy9P3NENIkL8U+/YYFeMkPTMfE962Xo+AAp0C3Z5xZG8brRToFB+kNv7nGAbMy6vzbKRAtzebbEcCcgkkxaZh9ZwnrO5HFzPpQydP0c1yd7GsfcHz463OnIt9571HvoZDx+LkAqV1EtAoAQp0jSZG626JJZqjevjjrvYhiIsO0eQyzRqGFZWV2L0vG69sLMSa7f/MCmmdcX3+zewfgie6x6p6LJ44F/7XP7MxZdUJ6QzF2JrQOxC9O0XD30/dc+BPFpbg3S3H8dzbBfV+wKFAp0CX8eyoKdB5aXKEqqtIau7tscvzsHm39QKQFOgyMk6bJOAcgfat92DFzOFo0OBsHQNiT7rYs631wnGiIJzYU29tz/nZsw3w0Oh52Lm3jXOAeBUJGIAABboBkujuEMTMbq/23ujRIQAXx4fAx7uJ22Z4a1iUl1fg9yMnsPqbIizcXKS72XJbORUidt6gENzWIQZNvOTtOyspLcPXP2ZjzobicwXS1PzVfAS678YwRIYHSxtTYsY8v6AYK7dkYvb6YpuFAinQKdBl3gdCqIstRW1bRUi9t0XRxx/3Z+GldQU2P7pRoMvMOG2TgOMEOnf4DxZNrP/YMS0fwVbfUWo1FAa/MANbdvzLcSi8ggQMRIAC3UDJ1Eoo7Vp4454Ub9x0uS+SYgLg7+cNDw8Pae4JgSWWXh/PKcLO/UX/3979hepB13Ec/2Fty52lTR3+W8NMUbFMUpQ0SXFlhmEmJgVSVJZBdVEUhRRRSFHURQVp/8uLSCsLo7S0BDW10lAoXVTW/DNLc6n749lu4pksvDhz55P76M7Oq+vvPuc5r+csfO959mxc+buN47Lr5/4rv3XFjAAAHx5JREFU5bMB2xqx50widtkLnvYrbxPLSZTf/ud/j8tvWDe+de1jO8Ufbpxx3NQ4/zVLxiuP2mfL39fdbbfdZsOzzZut3+cfVj00vvGLx8Z3f/XY09rziwnsaIHJ7+13rJwa5568dBx04NIdEuuTV8tX3//w+OnNa8clV6/73wcf7ujHbo8Agb7AJNIv/sRHZnwlffLVf3LtaePTX33vTvOW98lb2j/6ri+PM0+9ekacySvnF3ziM+K8/6PjK8wBAYE+B56kXeEhTqL9VS9ZNI4+eOE49IBFY88lC8aypVNj4YLnbHl7/KJFC5/y25ye3jQm/3H5+PTm8eDajePB/0yPVfdOj5tXbRo3rZr2H5pjjK3vZDjpyN3HIcuXjH2WLh6LFi6Y8Q9HJoE6MX3Cc/34xwMbxw1/enxcddvjO/wD4Hb0z+8kXM45cfE45aXPG4cunxr77j01Fi187pafoZnCffPmzWN60+bx0NoN495/bRg3r9o4fnDjxp3++9zRbvbmtsDKoxePs09YPI49dPex3967j732XLzN/+/c+vt7w8bpseah9ePO1Ru2/N6+7IZ1O8UfuM3tZ8KjJ7DzCEze7v7FCz8+499JnzzKdRumxhe+ff74zhVvelYf9FvPumx84G1fG0sWz/xOvMnfOX//RZ/0tvZn9VnyxXcmAYG+Mz0bHgsBAgQIECBAgACBWQpMPjjucx/+1Iyf7r51YtXdLx5fv/wt40e/PH2Wqzvm7I2v/tl45znfG4e96K/bHJx8WvuHPvsxHwi3Y8it7CICAn0XeSJ9GwQIECBAgAABAvNTYFv/TvqTNSYfIvf9n71+XHHN6bW3vk/eyn7Wyp+Pc1935YwfAvfkx+PfOZ+fP6u+6+0LCPTtG7kgQIAAAQIECBAgsFMLvGHlVePCd39pm295f/KD//UtJ45rbzpxXH/r8ePeB/Z/Wt/X8v3WjJOOuWWc+oobxynH37jdrclb2i+65H3jx9e8dru3DgjMRwGBPh+fdd8zAQIECBAgQIDALiewdI9HxgfffvGYfFr6bP83eWX99ruOGHfdfci4+54V475/7j8eXLvXeGz9kjG96YnPCFq0cNN4/tS6sWzpw+PAfdeMFy1fPQ4/+C/jZYffud1Xyp/8OCavmn/+mxeMtY/uOduH547AvBMQ6PPuKfcNEyBAgAABAgQI7MoCxxx5x3jPmy+d1Svaz4TD5BX7r3zvvHHrH496Jr6cr0FgTgsI9Dn99HnwBAgQIECAAAECBGYWmHzS+3ln/nCc9srrnhWiq284eVz6k7N9Qvuzou+LzlUBgT5XnzmPmwABAgQIECBAgMAsBCaf9j758LYzTr5mrDjgvln8iv//ZPX9B46fXrdyy4fR/e2eFf//kF9JYJ4KCPR5+sT7tgkQIECAAAECBOafwOTt7ycfd9M44eW/f8p/ni2Rmfxzab+57dhx3W9f4W3sCZxbAjMICHQ/FgQIECBAgAABAgTmocDU7hvGUYfdueUD31684u/jhfvfP/bb58Gx1x6PjKnF68fCBZu3qGzavGCs3zA1Hn50z/HAQ8vGPWsOGH9dfdC462+HjDtWHTHWb1w8D/V8ywQ6AgK942qVAAECBAgQIECAAAECBAhEAgI94nJMgAABAgQIECBAgAABAgQ6AgK942qVAAECBAgQIECAAAECBAhEAgI94nJMgAABAgQIECBAgAABAgQ6AgK942qVAAECBAgQIECAAAECBAhEAgI94nJMgAABAgQIECBAgAABAgQ6AgK942qVAAECBAgQIECAAAECBAhEAgI94nJMgAABAgQIECBAgAABAgQ6AgK942qVAAECBAgQIECAAAECBAhEAgI94nJMgAABAgQIECBAgAABAgQ6AgK942qVAAECBAgQIECAAAECBAhEAgI94nJMgAABAgQIECBAgAABAgQ6AgK942qVAAECBAgQIECAAAECBAhEAgI94nJMgAABAgQIECBAgAABAgQ6AgK942qVAAECBAgQIECAAAECBAhEAgI94nJMgAABAgQIECBAgAABAgQ6AgK942qVAAECBAgQIECAAAECBAhEAgI94nJMgAABAgQIECBAgAABAgQ6AgK942qVAAECBAgQIECAAAECBAhEAgI94nJMgAABAgQIECBAgAABAgQ6AgK942qVAAECBAgQIECAAAECBAhEAgI94nJMgAABAgQIECBAgAABAgQ6AgK942qVAAECBAgQIECAAAECBAhEAgI94nJMgAABAgQIECBAgAABAgQ6AgK942qVAAECBAgQIECAAAECBAhEAgI94nJMgAABAgQIECBAgAABAgQ6AgK942qVAAECBAgQIECAAAECBAhEAgI94nJMgAABAgQIECBAgAABAgQ6AgK942qVAAECBAgQIECAAAECBAhEAgI94nJMgAABAgQIECBAgAABAgQ6AgK942qVAAECBAgQIECAAAECBAhEAgI94nJMgAABAgQIECBAgAABAgQ6AgK942qVAAECBAgQIECAAAECBAhEAgI94nJMgAABAgQIECBAgAABAgQ6AgK942qVAAECBAgQIECAAAECBAhEAgI94nJMgAABAgQIECBAgAABAgQ6AgK942qVAAECBAgQIECAAAECBAhEAgI94nJMgAABAgQIECBAgAABAgQ6AgK942qVAAECBAgQIECAAAECBAhEAgI94nJMgAABAgQIECBAgAABAgQ6AgK942qVAAECBAgQIECAAAECBAhEAgI94nJMgAABAgQIECBAgAABAgQ6AgK942qVAAECBAgQIECAAAECBAhEAgI94nJMgAABAgQIECBAgAABAgQ6AgK942qVAAECBAgQIECAAAECBAhEAgI94nJMgAABAgQIECBAgAABAgQ6AgK942qVAAECBAgQIECAAAECBAhEAgI94nJMgAABAgQIECBAgAABAgQ6AgK942qVAAECBAgQIECAAAECBAhEAgI94nJMgAABAgQIECBAgAABAgQ6AgK942qVAAECBAgQIECAAAECBAhEAgI94nJMgAABAgQIECBAgAABAgQ6AgK942qVAAECBAgQIECAAAECBAhEAgI94nJMgAABAgQIECBAgAABAgQ6AgK942qVAAECBAgQIECAAAECBAhEAgI94nJMgAABAgQIECBAgAABAgQ6AgK942qVAAECBAgQIECAAAECBAhEAgI94nJMgAABAgQIECBAgAABAgQ6AgK942qVAAECBAgQIECAAAECBAhEAgI94nJMgAABAgQIECBAgAABAgQ6AgK942qVAAECBAgQIECAAAECBAhEAgI94nJMgAABAgQIECBAgAABAgQ6AgK942qVAAECBAgQIECAAAECBAhEAgI94nJMgAABAgQIECBAgAABAgQ6AgK942qVAAECBAgQIECAAAECBAhEAgI94nJMgAABAgQIECBAgAABAgQ6AgK942qVAAECBAgQIECAAAECBAhEAgI94nJMgAABAgQIECBAgAABAgQ6AgK942qVAAECBAgQIECAAAECBAhEAgI94nJMgAABAgQIECBAgAABAgQ6AgK942qVAAECBAgQIECAAAECBAhEAgI94nJMgAABAgQIECBAgAABAgQ6AgK942qVAAECBAgQIECAAAECBAhEAgI94nJMgAABAgQIECBAgAABAgQ6AgK942qVAAECBAgQIECAAAECBAhEAgI94nJMgAABAgQIECBAgAABAgQ6AgK942qVAAECBAgQIECAAAECBAhEAgI94nJMgAABAgQIECBAgAABAgQ6AgK942qVAAECBAgQIECAAAECBAhEAgI94nJMgAABAgQIECBAgAABAgQ6AgK942qVAAECBAgQIECAAAECBAhEAgI94nJMgAABAgQIECBAgAABAgQ6AgK942qVAAECBAgQIECAAAECBAhEAgI94nJMgAABAgQIECBAgAABAgQ6AgK942qVAAECBAgQIECAAAECBAhEAgI94nJMgAABAgQIECBAgAABAgQ6AgK942qVAAECBAgQIECAAAECBAhEAgI94nJMgAABAgQIECBAgAABAgQ6AgK942qVAAECBAgQIECAAAECBAhEAgI94nJMgAABAgQIECBAgAABAgQ6AgK942qVAAECBAgQIECAAAECBAhEAgI94nJMgAABAgQIECBAgAABAgQ6AgK942qVAAECBAgQIECAAAECBAhEAgI94nJMgAABAgQIECBAgAABAgQ6AgK942qVAAECBAgQIECAAAECBAhEAgI94nJMgAABAgQIECBAgAABAgQ6AgK942qVAAECBAgQIECAAAECBAhEAgI94nJMgAABAgQIECBAgAABAgQ6AgK942qVAAECBAgQIECAAAECBAhEAgI94nJMgAABAgQIECBAgAABAgQ6AgK942qVAAECBAgQIECAAAECBAhEAgI94nJMgAABAgQIECBAgAABAgQ6AgK942qVAAECBAgQIECAAAECBAhEAgI94nJMgAABAgQIECBAgAABAgQ6AgK942qVAAECBAgQIECAAAECBAhEAgI94nJMgAABAgQIECBAgAABAgQ6AgK942qVAAECBAgQIECAAAECBAhEAgI94nJMgAABAgQIECBAgAABAgQ6AgK942qVAAECBAgQIECAAAECBAhEAgI94nJMgAABAgQIECBAgAABAgQ6AgK942qVAAECBAgQIECAAAECBAhEAgI94nJMgAABAgQIECBAgAABAgQ6AgK942qVAAECBAgQIECAAAECBAhEAgI94nJMgAABAgQIECBAgAABAgQ6AgK942qVAAECBAgQIECAAAECBAhEAgI94nJMgAABAgQIECBAgAABAgQ6AgK942qVAAECBAgQIECAAAECBAhEAgI94nJMgAABAgQIECBAgAABAgQ6AgK942qVAAECBAgQIECAAAECBAhEAgI94nJMgAABAgQIECBAgAABAgQ6AgK942qVAAECBAgQIECAAAECBAhEAgI94nJMgAABAgQIECBAgAABAgQ6AgK942qVAAECBAgQIECAAAECBAhEAgI94nJMgAABAgQIECBAgAABAgQ6AgK942qVAAECBAgQIECAAAECBAhEAgI94nJMgAABAgQIECBAgAABAgQ6AgK942qVAAECBAgQIECAAAECBAhEAgI94nJMgAABAgQIECBAgAABAgQ6AgK942qVAAECBAgQIECAAAECBAhEAgI94nJMgAABAgQIECBAgAABAgQ6AgK942qVAAECBAgQIECAAAECBAhEAgI94nJMgAABAgQIECBAgAABAgQ6AgK942qVAAECBAgQIECAAAECBAhEAgI94nJMgAABAgQIECBAgAABAgQ6AgK942qVAAECBAgQIECAAAECBAhEAgI94nJMgAABAgQIECBAgAABAgQ6AgK942qVAAECBAgQIECAAAECBAhEAgI94nJMgAABAgQIECBAgAABAgQ6AgK942qVAAECBAgQIECAAAECBAhEAgI94nJMgAABAgQIECBAgAABAgQ6AgK942qVAAECBAgQIECAAAECBAhEAgI94nJMgAABAgQIECBAgAABAgQ6AgK942qVAAECBAgQIECAAAECBAhEAgI94nJMgAABAgQIECBAgAABAgQ6AgK942qVAAECBAgQIECAAAECBAhEAgI94nJMgAABAgQIECBAgAABAgQ6AgK942qVAAECBAgQIECAAAECBAhEAgI94nJMgAABAgQIECBAgAABAgQ6AgK942qVAAECBAgQIECAAAECBAhEAgI94nJMgAABAgQIECBAgAABAgQ6AgK942qVAAECBAgQIECAAAECBAhEAgI94nJMgAABAgQIECBAgAABAgQ6AgK942qVAAECBAgQIECAAAECBAhEAgI94nJMgAABAgQIECBAgAABAgQ6AgK942qVAAECBAgQIECAAAECBAhEAgI94nJMgAABAgQIECBAgAABAgQ6AgK942qVAAECBAgQIECAAAECBAhEAgI94nJMgAABAgQIECBAgAABAgQ6AgK942qVAAECBAgQIECAAAECBAhEAgI94nJMgAABAgQIECBAgAABAgQ6AgK942qVAAECBAgQIECAAAECBAhEAgI94nJMgAABAgQIECBAgAABAgQ6AgK942qVAAECBAgQIECAAAECBAhEAgI94nJMgAABAgQIECBAgAABAgQ6AgK942qVAAECBAgQIECAAAECBAhEAgI94nJMgAABAgQIECBAgAABAgQ6AgK942qVAAECBAgQIECAAAECBAhEAgI94nJMgAABAgQIECBAgAABAgQ6AgK942qVAAECBAgQIECAAAECBAhEAgI94nJMgAABAgQIECBAgAABAgQ6AgK942qVAAECBAgQIECAAAECBAhEAgI94nJMgAABAgQIECBAgAABAgQ6AgK942qVAAECBAgQIECAAAECBAhEAgI94nJMgAABAgQIECBAgAABAgQ6AgK942qVAAECBAgQIECAAAECBAhEAgI94nJMgAABAgQIECBAgAABAgQ6AgK942qVAAECBAgQIECAAAECBAhEAgI94nJMgAABAgQIECBAgAABAgQ6AgK942qVAAECBAgQIECAAAECBAhEAgI94nJMgAABAgQIECBAgAABAgQ6AgK942qVAAECBAgQIECAAAECBAhEAgI94nJMgAABAgQIECBAgAABAgQ6AgK942qVAAECBAgQIECAAAECBAhEAgI94nJMgAABAgQIECBAgAABAgQ6AgK942qVAAECBAgQIECAAAECBAhEAgI94nJMgAABAgQIECBAgAABAgQ6AgK942qVAAECBAgQIECAAAECBAhEAgI94nJMgAABAgQIECBAgAABAgQ6AgK942qVAAECBAgQIECAAAECBAhEAgI94nJMgAABAgQIECBAgAABAgQ6AgK942qVAAECBAgQIECAAAECBAhEAgI94nJMgAABAgQIECBAgAABAgQ6AgK942qVAAECBAgQIECAAAECBAhEAgI94nJMgAABAgQIECBAgAABAgQ6AgK942qVAAECBAgQIECAAAECBAhEAgI94nJMgAABAgQIECBAgAABAgQ6AgK942qVAAECBAgQIECAAAECBAhEAgI94nJMgAABAgQIECBAgAABAgQ6AgK942qVAAECBAgQIECAAAECBAhEAgI94nJMgAABAgQIECBAgAABAgQ6AgK942qVAAECBAgQIECAAAECBAhEAgI94nJMgAABAgQIECBAgAABAgQ6AgK942qVAAECBAgQIECAAAECBAhEAgI94nJMgAABAgQIECBAgAABAgQ6AgK942qVAAECBAgQIECAAAECBAhEAgI94nJMgAABAgQIECBAgAABAgQ6AgK942qVAAECBAgQIECAAAECBAhEAgI94nJMgAABAgQIECBAgAABAgQ6AgK942qVAAECBAgQIECAAAECBAhEAgI94nJMgAABAgQIECBAgAABAgQ6AgK942qVAAECBAgQIECAAAECBAhEAgI94nJMgAABAgQIECBAgAABAgQ6AgK942qVAAECBAgQIECAAAECBAhEAgI94nJMgAABAgQIECBAgAABAgQ6AgK942qVAAECBAgQIECAAAECBAhEAgI94nJMgAABAgQIECBAgAABAgQ6AgK942qVAAECBAgQIECAAAECBAhEAgI94nJMgAABAgQIECBAgAABAgQ6AgK942qVAAECBAgQIECAAAECBAhEAgI94nJMgAABAgQIECBAgAABAgQ6AgK942qVAAECBAgQIECAAAECBAhEAgI94nJMgAABAgQIECBAgAABAgQ6AgK942qVAAECBAgQIECAAAECBAhEAgI94nJMgAABAgQIECBAgAABAgQ6AgK942qVAAECBAgQIECAAAECBAhEAgI94nJMgAABAgQIECBAgAABAgQ6AgK942qVAAECBAgQIECAAAECBAhEAgI94nJMgAABAgQIECBAgAABAgQ6AgK942qVAAECBAgQIECAAAECBAhEAgI94nJMgAABAgQIECBAgAABAgQ6AgK942qVAAECBAgQIECAAAECBAhEAgI94nJMgAABAgQIECBAgAABAgQ6AgK942qVAAECBAgQIECAAAECBAhEAgI94nJMgAABAgQIECBAgAABAgQ6AgK942qVAAECBAgQIECAAAECBAhEAgI94nJMgAABAgQIECBAgAABAgQ6AgK942qVAAECBAgQIECAAAECBAhEAgI94nJMgAABAgQIECBAgAABAgQ6AgK942qVAAECBAgQIECAAAECBAhEAgI94nJMgAABAgQIECBAgAABAgQ6AgK942qVAAECBAgQIECAAAECBAhEAgI94nJMgAABAgQIECBAgAABAgQ6AgK942qVAAECBAgQIECAAAECBAhEAgI94nJMgAABAgQIECBAgAABAgQ6AgK942qVAAECBAgQIECAAAECBAhEAgI94nJMgAABAgQIECBAgAABAgQ6AgK942qVAAECBAgQIECAAAECBAhEAgI94nJMgAABAgQIECBAgAABAgQ6AgK942qVAAECBAgQIECAAAECBAhEAgI94nJMgAABAgQIECBAgAABAgQ6AgK942qVAAECBAgQIECAAAECBAhEAgI94nJMgAABAgQIECBAgAABAgQ6AgK942qVAAECBAgQIECAAAECBAhEAgI94nJMgAABAgQIECBAgAABAgQ6AgK942qVAAECBAgQIECAAAECBAhEAgI94nJMgAABAgQIECBAgAABAgQ6AgK942qVAAECBAgQIECAAAECBAhEAgI94nJMgAABAgQIECBAgAABAgQ6AgK942qVAAECBAgQIECAAAECBAhEAgI94nJMgAABAgQIECBAgAABAgQ6AgK942qVAAECBAgQIECAAAECBAhEAgI94nJMgAABAgQIECBAgAABAgQ6AgK942qVAAECBAgQIECAAAECBAhEAgI94nJMgAABAgQIECBAgAABAgQ6AgK942qVAAECBAgQIECAAAECBAhEAgI94nJMgAABAgQIECBAgAABAgQ6AgK942qVAAECBAgQIECAAAECBAhEAgI94nJMgAABAgQIECBAgAABAgQ6AgK942qVAAECBAgQIECAAAECBAhEAgI94nJMgAABAgQIECBAgAABAgQ6AgK942qVAAECBAgQIECAAAECBAhEAgI94nJMgAABAgQIECBAgAABAgQ6AgK942qVAAECBAgQIECAAAECBAhEAgI94nJMgAABAgQIECBAgAABAgQ6AgK942qVAAECBAgQIECAAAECBAhEAgI94nJMgAABAgQIECBAgAABAgQ6AgK942qVAAECBAgQIECAAAECBAhEAgI94nJMgAABAgQIECBAgAABAgQ6AgK942qVAAECBAgQIECAAAECBAhEAgI94nJMgAABAgQIECBAgAABAgQ6AgK942qVAAECBAgQIECAAAECBAhEAgI94nJMgAABAgQIECBAgAABAgQ6AgK942qVAAECBAgQIECAAAECBAhEAgI94nJMgAABAgQIECBAgAABAgQ6AgK942qVAAECBAgQIECAAAECBAhEAgI94nJMgAABAgQIECBAgAABAgQ6AgK942qVAAECBAgQIECAAAECBAhEAgI94nJMgAABAgQIECBAgAABAgQ6AgK942qVAAECBAgQIECAAAECBAhEAgI94nJMgAABAgQIECBAgAABAgQ6AgK942qVAAECBAgQIECAAAECBAhEAgI94nJMgAABAgQIECBAgAABAgQ6AgK942qVAAECBAgQIECAAAECBAhEAgI94nJMgAABAgQIECBAgAABAgQ6AgK942qVAAECBAgQIECAAAECBAhEAgI94nJMgAABAgQIECBAgAABAgQ6AgK942qVAAECBAgQIECAAAECBAhEAgI94nJMgAABAgQIECBAgAABAgQ6AgK942qVAAECBAgQIECAAAECBAhEAgI94nJMgAABAgQIECBAgAABAgQ6AgK942qVAAECBAgQIECAAAECBAhEAgI94nJMgAABAgQIECBAgAABAgQ6AgK942qVAAECBAgQIECAAAECBAhEAgI94nJMgAABAgQIECBAgAABAgQ6AgK942qVAAECBAgQIECAAAECBAhEAgI94nJMgAABAgQIECBAgAABAgQ6AgK942qVAAECBAgQIECAAAECBAhEAgI94nJMgAABAgQIECBAgAABAgQ6AgK942qVAAECBAgQIECAAAECBAhEAgI94nJMgAABAgQIECBAgAABAgQ6AgK942qVAAECBAgQIECAAAECBAhEAgI94nJMgAABAgQIECBAgAABAgQ6AgK942qVAAECBAgQIECAAAECBAhEAgI94nJMgAABAgQIECBAgAABAgQ6AgK942qVAAECBAgQIECAAAECBAhEAgI94nJMgAABAgQIECBAgAABAgQ6AgK942qVAAECBAgQIECAAAECBAhEAgI94nJMgAABAgQIECBAgAABAgQ6AgK942qVAAECBAgQIECAAAECBAhEAgI94nJMgAABAgQIECBAgAABAgQ6AgK942qVAAECBAgQIECAAAECBAhEAgI94nJMgAABAgQIECBAgAABAgQ6Av8FC9NyKp7oc/kAAAAASUVORK5CYII=;" vertex="1" parent="WIyWlLk6GJQsqaUBKTNV-1">
          <mxGeometry x="58" y="693" width="72" height="72" as="geometry" />
        </mxCell>
        <mxCell id="ym4Yz_Qm3gVudFvOybNQ-49" value="" style="shape=image;verticalLabelPosition=bottom;labelBackgroundColor=default;verticalAlign=top;aspect=fixed;imageAspect=0;image=data:image/png,iVBORw0KGgoAAAANSUhEUgAAACgAAAAqCAYAAADBNhlmAAAAAXNSR0IArs4c6QAAAARnQU1BAACxjwv8YQUAAAAJcEhZcwAAFiUAABYlAUlSJPAAAAIFSURBVFhH7ZgxS8NAFMefIlRwqNhit2SygmA3QUWdFfQTVHDsbrc62013R6F+AoU6G7GDWwfBOrWbokI3nTT/9M5errEXq3dJpT8I6SUh/XF37727jH24UIwZZ+fYEnvBniFuvrxR5eaRWq/v7Io5rJkE7a5myE5NsiuSIOQWSresFQ2QqxYXvyR9Q4yeixo+ghyfYBTDGoTo8T+ieGM+SZfFHN2Vl6i0bbGrZlAKQq66n6P1bNKbuAc7Np3sZdld/SgF88sZ9qsLUoEplIJ2upuTRMRcpROlYKXWm3qcRttLByZQC7o56fC8yVoduc2jOmvpRykIyhctmio43mFSDoQSjBJjgoMG1QQ7fwtSipycnfs2FU4brEVeErdSCdbqgEUHpPIrs24unfbyKA8sTJmwdV/Zg1gC4Y/EQwZy8jM4UHmQ2CEH+HUk+rDJXtsQQ64fQSMTRKRBEqYiaRVEztw6rnvzUcylHD7k/dAmyBP6lRtQCI6z2hO748dO+4NLRpugXCIhCWkZK6oebP1RrTYaJM3nn0sbFRyEkeBvGQmqQK3vR+x70PdtBksoeRmEbefaXGc1wsHOX3wONVXuCVQOed8S9K7rh7ZXbUTwPr7aUQpGgSg4XEGimrCmED18gmHWZ7rB8kv0CPzCij2H405e06DnsEUQ6RGMG8MVJHEk5oJEn4UIwj7um2RDAAAAAElFTkSuQmCC;" vertex="1" parent="WIyWlLk6GJQsqaUBKTNV-1">
          <mxGeometry x="148" y="719" width="28.57" height="30" as="geometry" />
        </mxCell>
        <mxCell id="ym4Yz_Qm3gVudFvOybNQ-51" value="&lt;font style=&quot;font-size: 9px;&quot;&gt;Follow for more: The Higher Stand Knowledge Centre&lt;/font&gt;" style="text;html=1;align=center;verticalAlign=middle;whiteSpace=wrap;rounded=0;rotation=-15;" vertex="1" parent="WIyWlLk6GJQsqaUBKTNV-1">
          <mxGeometry x="89.28" y="201.57" width="217" height="25" as="geometry" />
        </mxCell>
      </root>
    </mxGraphModel>
  </diagram>
</mxfile>
